<svg width="1440" height="30" viewBox="0 0 1440 30" fill="none" xmlns="http://www.w3.org/2000/svg">
<g clip-path="url(#clip0_4686_3901)">
<path d="M1440 28.5H0V30H1440V28.5Z" fill="#DDE1E6"/>
<path d="M1444.5 7.20007H1437.5L1425.4 23.6001H1432.4L1444.5 7.20007Z" fill="#DDE1E6"/>
<path d="M1427 1.40002H1423.6H1420.2L1423.6 6.00002L1427 1.40002Z" fill="#DDE1E6"/>
<path d="M1421.8 23.6001H1414.8L1402.7 7.20007H1409.7L1421.8 23.6001Z" fill="#DDE1E6"/>
<path d="M1429 7.20007L1432.1 11.3001H1425.7L1428.7 15.3001C1428.7 15.2001 1418.3 15.3001 1418.3 15.3001L1421.3 11.3001H1414.9L1418 7.20007H1411.3L1423.4 23.6001L1435.5 7.20007H1428.8H1429ZM1423.6 18.8001H1422L1423.6 16.6001L1425.2 18.8001H1423.6Z" fill="#DDE1E6"/>
<path d="M1397.5 28.5H1400.9H1404.3L1400.9 23.8L1397.5 28.5Z" fill="#DDE1E6"/>
<path d="M1399.1 7.20007H1392.1L1380 23.6001H1387L1399.1 7.20007Z" fill="#DDE1E6"/>
<path d="M1395.5 23.6001L1392.4 19.5001H1398.8L1395.8 15.5001C1395.8 15.6001 1406.2 15.5001 1406.2 15.5001L1403.2 19.5001H1409.6L1406.5 23.6001H1413.2L1401.1 7.20007L1389 23.6001H1395.7H1395.5ZM1400.9 12.0001H1402.5L1400.9 14.2001L1399.3 12.0001H1400.9Z" fill="#DDE1E6"/>
<path d="M1381.7 1.40002H1378.2H1374.8L1378.2 6.00002L1381.7 1.40002Z" fill="#DDE1E6"/>
<path d="M1376.5 23.6001H1369.5L1357.4 7.20007H1364.4L1376.5 23.6001Z" fill="#DDE1E6"/>
<path d="M1383.7 7.20007L1386.8 11.3001H1380.4L1383.4 15.3001C1383.4 15.2001 1373 15.3001 1373 15.3001L1376 11.3001H1369.6L1372.7 7.20007H1366L1378.1 23.6001L1390.2 7.20007H1383.5H1383.7ZM1378.2 18.8001H1376.6L1378.2 16.6001L1379.8 18.8001H1378.2Z" fill="#DDE1E6"/>
<path d="M1352.1 28.5H1355.5H1359L1355.5 23.8L1352.1 28.5Z" fill="#DDE1E6"/>
<path d="M1353.8 7.20007H1346.8L1334.7 23.6001H1341.7L1353.8 7.20007Z" fill="#DDE1E6"/>
<path d="M1350.1 23.6001L1347 19.5001H1353.4L1350.4 15.5001C1350.4 15.6001 1360.8 15.5001 1360.8 15.5001L1357.8 19.5001H1364.2L1361.1 23.6001H1367.8L1355.7 7.20007L1343.6 23.6001H1350.3H1350.1ZM1355.5 12.0001H1357.1L1355.5 14.2001L1353.9 12.0001H1355.5Z" fill="#DDE1E6"/>
<path d="M1336.3 1.40002H1332.9H1329.4L1332.9 6.00002L1336.3 1.40002Z" fill="#DDE1E6"/>
<path d="M1331.1 23.6001H1324.1L1312 7.20007H1319L1331.1 23.6001Z" fill="#DDE1E6"/>
<path d="M1338.3 7.20007L1341.4 11.3001H1335L1338 15.3001C1338 15.2001 1327.6 15.3001 1327.6 15.3001L1330.6 11.3001H1324.2L1327.3 7.20007H1320.6L1332.7 23.6001L1344.8 7.20007H1338.1H1338.3ZM1332.9 18.8001H1331.3L1332.9 16.6001L1334.5 18.8001H1332.9Z" fill="#DDE1E6"/>
<path d="M1306.8 28.5H1310.2H1313.6L1310.2 23.8L1306.8 28.5Z" fill="#DDE1E6"/>
<path d="M1308.4 7.20007H1301.4L1289.3 23.6001H1296.3L1308.4 7.20007Z" fill="#DDE1E6"/>
<path d="M1304.7 23.6001L1301.6 19.5001H1308L1305 15.5001C1305 15.6001 1315.4 15.5001 1315.4 15.5001L1312.4 19.5001H1318.8L1315.7 23.6001H1322.4L1310.3 7.20007L1298.2 23.6001H1304.9H1304.7ZM1310.2 12.0001H1311.8L1310.2 14.2001L1308.6 12.0001H1310.2Z" fill="#DDE1E6"/>
<path d="M1290.9 1.40002H1287.5H1284.1L1287.5 6.00002L1290.9 1.40002Z" fill="#DDE1E6"/>
<path d="M1285.7 23.6001H1278.7L1266.6 7.20007H1273.6L1285.7 23.6001Z" fill="#DDE1E6"/>
<path d="M1293 7.20007L1296.1 11.3001H1289.7L1292.7 15.3001C1292.7 15.2001 1282.3 15.3001 1282.3 15.3001L1285.3 11.3001H1278.9L1282 7.20007H1275.3L1287.4 23.6001L1299.5 7.20007H1292.8H1293ZM1287.5 18.8001H1285.9L1287.5 16.6001L1289.1 18.8001H1287.5Z" fill="#DDE1E6"/>
<path d="M1261.4 28.5H1264.8H1268.3L1264.8 23.8L1261.4 28.5Z" fill="#DDE1E6"/>
<path d="M1263 7.20007H1256L1243.9 23.6001H1250.9L1263 7.20007Z" fill="#DDE1E6"/>
<path d="M1259.4 23.6001L1256.3 19.5001H1262.7L1259.7 15.5001C1259.7 15.6001 1270.1 15.5001 1270.1 15.5001L1267.1 19.5001H1273.5L1270.4 23.6001H1277.1L1265 7.20007L1252.9 23.6001H1259.6H1259.4ZM1264.8 12.0001H1266.4L1264.8 14.2001L1263.2 12.0001H1264.8Z" fill="#DDE1E6"/>
<path d="M1245.6 1.40002H1242.1H1238.7L1242.1 6.00002L1245.6 1.40002Z" fill="#DDE1E6"/>
<path d="M1240.4 23.6001H1233.4L1221.3 7.20007H1228.3L1240.4 23.6001Z" fill="#DDE1E6"/>
<path d="M1247.6 7.20007L1250.7 11.3001H1244.3L1247.3 15.3001C1247.3 15.2001 1236.9 15.3001 1236.9 15.3001L1239.9 11.3001H1233.5L1236.6 7.20007H1229.9L1242 23.6001L1254.1 7.20007H1247.4H1247.6ZM1242.1 18.8001H1240.5L1242.1 16.6001L1243.7 18.8001H1242.1Z" fill="#DDE1E6"/>
<path d="M1216.1 28.5H1219.5H1222.9L1219.5 23.8L1216.1 28.5Z" fill="#DDE1E6"/>
<path d="M1217.7 7.20007H1210.7L1198.6 23.6001H1205.6L1217.7 7.20007Z" fill="#DDE1E6"/>
<path d="M1214 23.6001L1210.9 19.5001H1217.3L1214.3 15.5001C1214.3 15.6001 1224.7 15.5001 1224.7 15.5001L1221.7 19.5001H1228.1L1225 23.6001H1231.7L1219.6 7.20007L1207.5 23.6001H1214.2H1214ZM1219.5 12.0001H1221.1L1219.5 14.2001L1217.9 12.0001H1219.5Z" fill="#DDE1E6"/>
<path d="M1200.2 1.40002H1196.8H1193.4L1196.8 6.00002L1200.2 1.40002Z" fill="#DDE1E6"/>
<path d="M1195 23.6001H1188L1175.9 7.20007H1182.9L1195 23.6001Z" fill="#DDE1E6"/>
<path d="M1202.3 7.20007L1205.4 11.3001H1199L1202 15.3001C1202 15.2001 1191.6 15.3001 1191.6 15.3001L1194.6 11.3001H1188.2L1191.3 7.20007H1184.6L1196.7 23.6001L1208.8 7.20007H1202.1H1202.3ZM1196.8 18.8001H1195.2L1196.8 16.6001L1198.4 18.8001H1196.8Z" fill="#DDE1E6"/>
<path d="M1170.7 28.5H1174.1H1177.5L1174.1 23.8L1170.7 28.5Z" fill="#DDE1E6"/>
<path d="M1172.3 7.20007H1165.3L1153.2 23.6001H1160.2L1172.3 7.20007Z" fill="#DDE1E6"/>
<path d="M1168.6 23.6001L1165.5 19.5001H1171.9L1168.9 15.5001C1168.9 15.6001 1179.3 15.5001 1179.3 15.5001L1176.3 19.5001H1182.7L1179.6 23.6001H1186.3L1174.2 7.20007L1162.1 23.6001H1168.8H1168.6ZM1174.1 12.0001H1175.7L1174.1 14.2001L1172.5 12.0001H1174.1Z" fill="#DDE1E6"/>
<path d="M1154.8 1.40002H1151.4H1148L1151.4 6.00002L1154.8 1.40002Z" fill="#DDE1E6"/>
<path d="M1149.6 23.6001H1142.6L1130.5 7.20007H1137.5L1149.6 23.6001Z" fill="#DDE1E6"/>
<path d="M1156.9 7.20007L1160 11.3001H1153.6L1156.6 15.3001C1156.6 15.2001 1146.2 15.3001 1146.2 15.3001L1149.2 11.3001H1142.8L1145.9 7.20007H1139.2L1151.3 23.6001L1163.4 7.20007H1156.7H1156.9ZM1151.4 18.8001H1149.8L1151.4 16.6001L1153 18.8001H1151.4Z" fill="#DDE1E6"/>
<path d="M1125.3 28.5H1128.8H1132.2L1128.8 23.8L1125.3 28.5Z" fill="#DDE1E6"/>
<path d="M1127 7.20007H1120L1107.9 23.6001H1114.9L1127 7.20007Z" fill="#DDE1E6"/>
<path d="M1123.3 23.6001L1120.2 19.5001H1126.6L1123.6 15.5001C1123.6 15.6001 1134 15.5001 1134 15.5001L1131 19.5001H1137.4L1134.3 23.6001H1141L1128.9 7.20007L1116.8 23.6001H1123.5H1123.3ZM1128.8 12.0001H1130.4L1128.8 14.2001L1127.2 12.0001H1128.8Z" fill="#DDE1E6"/>
<path d="M1109.5 1.40002H1106.1H1102.6L1106.1 6.00002L1109.5 1.40002Z" fill="#DDE1E6"/>
<path d="M1104.3 23.6001H1097.3L1085.2 7.20007H1092.2L1104.3 23.6001Z" fill="#DDE1E6"/>
<path d="M1111.5 7.20007L1114.6 11.3001H1108.2L1111.2 15.3001C1111.2 15.2001 1100.8 15.3001 1100.8 15.3001L1103.8 11.3001H1097.4L1100.5 7.20007H1093.8L1105.9 23.6001L1118 7.20007H1111.3H1111.5ZM1106.1 18.8001H1104.5L1106.1 16.6001L1107.7 18.8001H1106.1Z" fill="#DDE1E6"/>
<path d="M1254 27.7001L1254.1 27.6001H1254V27.7001Z" fill="#DDE1E6"/>
<path d="M1316.8 1.30005L1316.7 1.40005H1316.8V1.30005Z" fill="#DDE1E6"/>
<path d="M1079.6 28.5H1083H1086.5L1083 23.8L1079.6 28.5Z" fill="#DDE1E6"/>
<path d="M1081.3 7.20007H1074.3L1062.2 23.6001H1069.2L1081.3 7.20007Z" fill="#DDE1E6"/>
<path d="M1077.6 23.6001L1074.5 19.5001H1080.9L1077.9 15.5001C1077.9 15.6001 1088.3 15.5001 1088.3 15.5001L1085.3 19.5001H1091.7L1088.6 23.6001H1095.3L1083.2 7.20007L1071.1 23.6001H1077.8H1077.6ZM1083 12.0001H1084.6L1083 14.2001L1081.4 12.0001H1083Z" fill="#DDE1E6"/>
<path d="M1063.8 1.40002H1060.4H1056.9L1060.4 6.00002L1063.8 1.40002Z" fill="#DDE1E6"/>
<path d="M1058.6 23.6001H1051.6L1039.5 7.20007H1046.5L1058.6 23.6001Z" fill="#DDE1E6"/>
<path d="M1065.8 7.20007L1068.9 11.3001H1062.5L1065.5 15.3001C1065.5 15.2001 1055.1 15.3001 1055.1 15.3001L1058.1 11.3001H1051.7L1054.8 7.20007H1048.1L1060.2 23.6001L1072.3 7.20007H1065.6H1065.8ZM1060.4 18.8001H1058.8L1060.4 16.6001L1062 18.8001H1060.4Z" fill="#DDE1E6"/>
<path d="M1034.3 28.5H1037.7H1041.1L1037.7 23.8L1034.3 28.5Z" fill="#DDE1E6"/>
<path d="M1035.9 7.20007H1028.9L1016.8 23.6001H1023.8L1035.9 7.20007Z" fill="#DDE1E6"/>
<path d="M1032.2 23.6001L1029.1 19.5001H1035.5L1032.5 15.5001C1032.5 15.6001 1042.9 15.5001 1042.9 15.5001L1039.9 19.5001H1046.3L1043.2 23.6001H1049.9L1037.8 7.20007L1025.7 23.6001H1032.4H1032.2ZM1037.7 12.0001H1039.3L1037.7 14.2001L1036.1 12.0001H1037.7Z" fill="#DDE1E6"/>
<path d="M1018.4 1.40002H1015H1011.6L1015 6.00002L1018.4 1.40002Z" fill="#DDE1E6"/>
<path d="M1013.2 23.6001H1006.2L994.1 7.20007H1001.1L1013.2 23.6001Z" fill="#DDE1E6"/>
<path d="M1020.5 7.20007L1023.6 11.3001H1017.2L1020.2 15.3001C1020.2 15.2001 1009.8 15.3001 1009.8 15.3001L1012.8 11.3001H1006.4L1009.5 7.20007H1002.8L1014.9 23.6001L1027 7.20007H1020.3H1020.5ZM1015 18.8001H1013.4L1015 16.6001L1016.6 18.8001H1015Z" fill="#DDE1E6"/>
<path d="M988.9 28.5H992.3H995.7L992.3 23.8L988.9 28.5Z" fill="#DDE1E6"/>
<path d="M990.5 7.20007H983.5L971.4 23.6001H978.4L990.5 7.20007Z" fill="#DDE1E6"/>
<path d="M986.9 23.6001L983.8 19.5001H990.2L987.2 15.5001C987.2 15.6001 997.6 15.5001 997.6 15.5001L994.6 19.5001H1001L997.9 23.6001H1004.6L992.5 7.20007L980.4 23.6001H987.1H986.9ZM992.3 12.0001H993.9L992.3 14.2001L990.7 12.0001H992.3Z" fill="#DDE1E6"/>
<path d="M973.1 1.40002H969.6H966.2L969.6 6.00002L973.1 1.40002Z" fill="#DDE1E6"/>
<path d="M967.9 23.6001H960.9L948.8 7.20007H955.8L967.9 23.6001Z" fill="#DDE1E6"/>
<path d="M975.1 7.20007L978.2 11.3001H971.8L974.8 15.3001C974.8 15.2001 964.4 15.3001 964.4 15.3001L967.4 11.3001H961L964.1 7.20007H957.4L969.5 23.6001L981.6 7.20007H974.9H975.1ZM969.6 18.8001H968L969.6 16.6001L971.2 18.8001H969.6Z" fill="#DDE1E6"/>
<path d="M943.5 28.5H947H950.4L947 23.8L943.5 28.5Z" fill="#DDE1E6"/>
<path d="M945.2 7.20007H938.2L926.1 23.6001H933.1L945.2 7.20007Z" fill="#DDE1E6"/>
<path d="M941.5 23.6001L938.4 19.5001H944.8L941.8 15.5001C941.8 15.6001 952.2 15.5001 952.2 15.5001L949.2 19.5001H955.6L952.5 23.6001H959.2L947.1 7.20007L935 23.6001H941.7H941.5ZM947 12.0001H948.6L947 14.2001L945.4 12.0001H947Z" fill="#DDE1E6"/>
<path d="M927.7 1.40002H924.3H920.9L924.3 6.00002L927.7 1.40002Z" fill="#DDE1E6"/>
<path d="M922.5 23.6001H915.5L903.4 7.20007H910.4L922.5 23.6001Z" fill="#DDE1E6"/>
<path d="M929.8 7.20007L932.9 11.3001H926.5L929.5 15.3001C929.5 15.2001 919.1 15.3001 919.1 15.3001L922.1 11.3001H915.7L918.8 7.20007H912.1L924.2 23.6001L936.3 7.20007H929.6H929.8ZM924.3 18.8001H922.7L924.3 16.6001L925.9 18.8001H924.3Z" fill="#DDE1E6"/>
<path d="M898.2 28.5H901.6H905L901.6 23.8L898.2 28.5Z" fill="#DDE1E6"/>
<path d="M899.8 7.20007H892.8L880.7 23.6001H887.7L899.8 7.20007Z" fill="#DDE1E6"/>
<path d="M896.1 23.6001L893 19.5001H899.4L896.4 15.5001C896.4 15.6001 906.8 15.5001 906.8 15.5001L903.8 19.5001H910.2L907.1 23.6001H913.8L901.7 7.20007L889.6 23.6001H896.3H896.1ZM901.6 12.0001H903.2L901.6 14.2001L900 12.0001H901.6Z" fill="#DDE1E6"/>
<path d="M882.4 1.40002H878.9H875.5L878.9 6.00002L882.4 1.40002Z" fill="#DDE1E6"/>
<path d="M877.2 23.6001H870.2L858.1 7.20007H865.1L877.2 23.6001Z" fill="#DDE1E6"/>
<path d="M884.4 7.20007L887.5 11.3001H881.1L884.1 15.3001C884.1 15.2001 873.7 15.3001 873.7 15.3001L876.7 11.3001H870.3L873.4 7.20007H866.7L878.8 23.6001L890.9 7.20007H884.2H884.4ZM878.9 18.8001H877.3L878.9 16.6001L880.5 18.8001H878.9Z" fill="#DDE1E6"/>
<path d="M852.8 28.5H856.3H859.7L856.3 23.8L852.8 28.5Z" fill="#DDE1E6"/>
<path d="M854.5 7.20007H847.5L835.4 23.6001H842.4L854.5 7.20007Z" fill="#DDE1E6"/>
<path d="M850.8 23.6001L847.7 19.5001H854.1L851.1 15.5001C851.1 15.6001 861.5 15.5001 861.5 15.5001L858.5 19.5001H864.9L861.8 23.6001H868.5L856.4 7.20007L844.3 23.6001H851H850.8ZM856.3 12.0001H857.9L856.3 14.2001L854.7 12.0001H856.3Z" fill="#DDE1E6"/>
<path d="M837 1.40002H833.6H830.2L833.6 6.00002L837 1.40002Z" fill="#DDE1E6"/>
<path d="M831.8 23.6001H824.8L812.7 7.20007H819.7L831.8 23.6001Z" fill="#DDE1E6"/>
<path d="M839 7.20007L842.1 11.3001H835.7L838.7 15.3001C838.7 15.2001 828.3 15.3001 828.3 15.3001L831.3 11.3001H824.9L828 7.20007H821.3L833.4 23.6001L845.5 7.20007H838.8H839ZM833.6 18.8001H832L833.6 16.6001L835.2 18.8001H833.6Z" fill="#DDE1E6"/>
<path d="M807.5 28.5H810.9H814.3L810.9 23.8L807.5 28.5Z" fill="#DDE1E6"/>
<path d="M809.1 7.20007H802.1L790 23.6001H797L809.1 7.20007Z" fill="#DDE1E6"/>
<path d="M805.4 23.6001L802.3 19.5001H808.7L805.7 15.5001C805.7 15.6001 816.1 15.5001 816.1 15.5001L813.1 19.5001H819.5L816.4 23.6001H823.1L811 7.20007L798.9 23.6001H805.6H805.4ZM810.9 12.0001H812.5L810.9 14.2001L809.3 12.0001H810.9Z" fill="#DDE1E6"/>
<path d="M791.6 1.40002H788.2H784.8L788.2 6.00002L791.6 1.40002Z" fill="#DDE1E6"/>
<path d="M786.4 23.6001H779.4L767.3 7.20007H774.3L786.4 23.6001Z" fill="#DDE1E6"/>
<path d="M793.7 7.20007L796.8 11.3001H790.4L793.4 15.3001C793.4 15.2001 783 15.3001 783 15.3001L786 11.3001H779.6L782.7 7.20007H776L788.1 23.6001L800.2 7.20007H793.5H793.7ZM788.2 18.8001H786.6L788.2 16.6001L789.8 18.8001H788.2Z" fill="#DDE1E6"/>
<path d="M762.1 28.5H765.5H769L765.5 23.8L762.1 28.5Z" fill="#DDE1E6"/>
<path d="M763.8 7.20007H756.8L744.7 23.6001H751.7L763.8 7.20007Z" fill="#DDE1E6"/>
<path d="M760.1 23.6001L757 19.5001H763.4L760.4 15.5001C760.4 15.6001 770.8 15.5001 770.8 15.5001L767.8 19.5001H774.2L771.1 23.6001H777.8L765.7 7.20007L753.6 23.6001H760.3H760.1ZM765.5 12.0001H767.1L765.5 14.2001L763.9 12.0001H765.5Z" fill="#DDE1E6"/>
<path d="M746.3 1.40002H742.8H739.4L742.8 6.00002L746.3 1.40002Z" fill="#DDE1E6"/>
<path d="M741.1 23.6001H734.1L722 7.20007H729L741.1 23.6001Z" fill="#DDE1E6"/>
<path d="M748.3 7.20007L751.4 11.3001H745L748 15.3001C748 15.2001 737.6 15.3001 737.6 15.3001L740.6 11.3001H734.2L737.3 7.20007H730.6L742.7 23.6001L754.8 7.20007H748.1H748.3ZM742.8 18.8001H741.2L742.8 16.6001L744.4 18.8001H742.8Z" fill="#DDE1E6"/>
<path d="M890.8 27.7001L890.9 27.6001H890.8V27.7001Z" fill="#DDE1E6"/>
<path d="M953.6 1.30005L953.5 1.40005H953.6V1.30005Z" fill="#DDE1E6"/>
<path d="M716.4 28.5H719.8H723.3L719.8 23.8L716.4 28.5Z" fill="#DDE1E6"/>
<path d="M718 7.20007H711L698.9 23.6001H705.9L718 7.20007Z" fill="#DDE1E6"/>
<path d="M714.4 23.6001L711.3 19.5001H717.7L714.7 15.5001C714.7 15.6001 725.1 15.5001 725.1 15.5001L722.1 19.5001H728.5L725.4 23.6001H732.1L720 7.20007L707.9 23.6001H714.6H714.4ZM719.8 12.0001H721.4L719.8 14.2001L718.2 12.0001H719.8Z" fill="#DDE1E6"/>
<path d="M700.6 1.40002H697.1H693.7L697.1 6.00002L700.6 1.40002Z" fill="#DDE1E6"/>
<path d="M695.4 23.6001H688.4L676.3 7.20007H683.3L695.4 23.6001Z" fill="#DDE1E6"/>
<path d="M702.6 7.20007L705.7 11.3001H699.3L702.3 15.3001C702.3 15.2001 691.9 15.3001 691.9 15.3001L694.9 11.3001H688.5L691.6 7.20007H684.9L697 23.6001L709.1 7.20007H702.4H702.6ZM697.1 18.8001H695.5L697.1 16.6001L698.7 18.8001H697.1Z" fill="#DDE1E6"/>
<path d="M671.1 28.5H674.5H677.9L674.5 23.8L671.1 28.5Z" fill="#DDE1E6"/>
<path d="M672.7 7.20007H665.7L653.6 23.6001H660.6L672.7 7.20007Z" fill="#DDE1E6"/>
<path d="M669 23.6001L665.9 19.5001H672.3L669.3 15.5001C669.3 15.6001 679.7 15.5001 679.7 15.5001L676.7 19.5001H683.1L680 23.6001H686.7L674.6 7.20007L662.5 23.6001H669.2H669ZM674.5 12.0001H676.1L674.5 14.2001L672.9 12.0001H674.5Z" fill="#DDE1E6"/>
<path d="M655.2 1.40002H651.8H648.4L651.8 6.00002L655.2 1.40002Z" fill="#DDE1E6"/>
<path d="M650 23.6001H643L630.9 7.20007H637.9L650 23.6001Z" fill="#DDE1E6"/>
<path d="M657.3 7.20007L660.4 11.3001H654L657 15.3001C657 15.2001 646.6 15.3001 646.6 15.3001L649.6 11.3001H643.2L646.3 7.20007H639.6L651.7 23.6001L663.8 7.20007H657.1H657.3ZM651.8 18.8001H650.2L651.8 16.6001L653.4 18.8001H651.8Z" fill="#DDE1E6"/>
<path d="M625.7 28.5H629.1H632.5L629.1 23.8L625.7 28.5Z" fill="#DDE1E6"/>
<path d="M627.3 7.20007H620.3L608.2 23.6001H615.2L627.3 7.20007Z" fill="#DDE1E6"/>
<path d="M623.6 23.6001L620.5 19.5001H626.9L623.9 15.5001C623.9 15.6001 634.3 15.5001 634.3 15.5001L631.3 19.5001H637.7L634.6 23.6001H641.3L629.2 7.20007L617.1 23.6001H623.8H623.6ZM629.1 12.0001H630.7L629.1 14.2001L627.5 12.0001H629.1Z" fill="#DDE1E6"/>
<path d="M609.8 1.40002H606.4H603L606.4 6.00002L609.8 1.40002Z" fill="#DDE1E6"/>
<path d="M604.6 23.6001H597.6L585.5 7.20007H592.5L604.6 23.6001Z" fill="#DDE1E6"/>
<path d="M611.9 7.20007L615 11.3001H608.6L611.6 15.3001C611.6 15.2001 601.2 15.3001 601.2 15.3001L604.2 11.3001H597.8L600.9 7.20007H594.2L606.3 23.6001L618.4 7.20007H611.7H611.9ZM606.4 18.8001H604.8L606.4 16.6001L608 18.8001H606.4Z" fill="#DDE1E6"/>
<path d="M580.3 28.5H583.8H587.2L583.8 23.8L580.3 28.5Z" fill="#DDE1E6"/>
<path d="M582 7.20007H575L562.9 23.6001H569.9L582 7.20007Z" fill="#DDE1E6"/>
<path d="M578.3 23.6001L575.2 19.5001H581.6L578.6 15.5001C578.6 15.6001 589 15.5001 589 15.5001L586 19.5001H592.4L589.3 23.6001H596L583.9 7.20007L571.8 23.6001H578.5H578.3ZM583.8 12.0001H585.4L583.8 14.2001L582.2 12.0001H583.8Z" fill="#DDE1E6"/>
<path d="M564.5 1.40002H561.1H557.6L561.1 6.00002L564.5 1.40002Z" fill="#DDE1E6"/>
<path d="M559.3 23.6001H552.3L540.2 7.20007H547.2L559.3 23.6001Z" fill="#DDE1E6"/>
<path d="M566.5 7.20007L569.6 11.3001H563.2L566.2 15.3001C566.2 15.2001 555.8 15.3001 555.8 15.3001L558.8 11.3001H552.4L555.5 7.20007H548.8L560.9 23.6001L573 7.20007H566.3H566.5ZM561.1 18.8001H559.5L561.1 16.6001L562.7 18.8001H561.1Z" fill="#DDE1E6"/>
<path d="M535 28.5H538.4H541.8L538.4 23.8L535 28.5Z" fill="#DDE1E6"/>
<path d="M536.6 7.20007H529.6L517.5 23.6001H524.5L536.6 7.20007Z" fill="#DDE1E6"/>
<path d="M532.9 23.6001L529.8 19.5001H536.2L533.2 15.5001C533.2 15.6001 543.6 15.5001 543.6 15.5001L540.6 19.5001H547L543.9 23.6001H550.6L538.5 7.20007L526.4 23.6001H533.1H532.9ZM538.4 12.0001H540L538.4 14.2001L536.8 12.0001H538.4Z" fill="#DDE1E6"/>
<path d="M519.1 1.40002H515.7H512.3L515.7 6.00002L519.1 1.40002Z" fill="#DDE1E6"/>
<path d="M513.9 23.6001H506.9L494.8 7.20007H501.8L513.9 23.6001Z" fill="#DDE1E6"/>
<path d="M521.2 7.20007L524.3 11.3001H517.9L520.9 15.3001C520.9 15.2001 510.5 15.3001 510.5 15.3001L513.5 11.3001H507.1L510.2 7.20007H503.5L515.6 23.6001L527.7 7.20007H521H521.2ZM515.7 18.8001H514.1L515.7 16.6001L517.3 18.8001H515.7Z" fill="#DDE1E6"/>
<path d="M489.6 28.5H493H496.5L493 23.8L489.6 28.5Z" fill="#DDE1E6"/>
<path d="M491.3 7.20007H484.3L472.2 23.6001H479.2L491.3 7.20007Z" fill="#DDE1E6"/>
<path d="M487.6 23.6001L484.5 19.5001H490.9L487.9 15.5001C487.8 15.6001 498.3 15.5001 498.3 15.5001L495.3 19.5001H501.7L498.6 23.6001H505.3L493.2 7.20007L481.1 23.6001H487.8H487.6ZM493 12.0001H494.6L493 14.2001L491.4 12.0001H493Z" fill="#DDE1E6"/>
<path d="M473.8 1.40002H470.4H466.9L470.4 6.00002L473.8 1.40002Z" fill="#DDE1E6"/>
<path d="M468.6 23.6001H461.6L449.5 7.20007H456.5L468.6 23.6001Z" fill="#DDE1E6"/>
<path d="M475.8 7.20007L478.9 11.3001H472.5L475.5 15.3001C475.6 15.2001 465.1 15.3001 465.1 15.3001L468.1 11.3001H461.7L464.8 7.20007H458.1L470.2 23.6001L482.3 7.20007H475.6H475.8ZM470.4 18.8001H468.8L470.4 16.6001L472 18.8001H470.4Z" fill="#DDE1E6"/>
<path d="M444.2 28.5H447.7H451.1L447.7 23.8L444.2 28.5Z" fill="#DDE1E6"/>
<path d="M445.9 7.20007H438.9L426.8 23.6001H433.8L445.9 7.20007Z" fill="#DDE1E6"/>
<path d="M442.2 23.6001L439.1 19.5001H445.5L442.5 15.5001C442.4 15.6001 452.9 15.5001 452.9 15.5001L449.9 19.5001H456.3L453.2 23.6001H459.9L447.8 7.20007L435.7 23.6001H442.4H442.2ZM447.7 12.0001H449.3L447.7 14.2001L446.1 12.0001H447.7Z" fill="#DDE1E6"/>
<path d="M428.4 1.40002H425H421.6L425 6.00002L428.4 1.40002Z" fill="#DDE1E6"/>
<path d="M423.2 23.6001H416.2L404.1 7.20007H411.1L423.2 23.6001Z" fill="#DDE1E6"/>
<path d="M430.4 7.20007L433.5 11.3001H427.1L430.1 15.3001C430.2 15.2001 419.7 15.3001 419.7 15.3001L422.7 11.3001H416.3L419.4 7.20007H412.7L424.8 23.6001L436.9 7.20007H430.2H430.4ZM425 18.8001H423.4L425 16.6001L426.6 18.8001H425Z" fill="#DDE1E6"/>
<path d="M398.9 28.5H402.3H405.7L402.3 23.8L398.9 28.5Z" fill="#DDE1E6"/>
<path d="M400.5 7.20007H393.5L381.4 23.6001H388.4L400.5 7.20007Z" fill="#DDE1E6"/>
<path d="M396.9 23.6001L393.8 19.5001H400.2L397.2 15.5001C397.1 15.6001 407.6 15.5001 407.6 15.5001L404.6 19.5001H411L407.9 23.6001H414.6L402.5 7.20007L390.4 23.6001H397.1H396.9ZM402.3 12.0001H403.9L402.3 14.2001L400.7 12.0001H402.3Z" fill="#DDE1E6"/>
<path d="M383.1 1.40002H379.6H376.2L379.6 6.00002L383.1 1.40002Z" fill="#DDE1E6"/>
<path d="M377.9 23.6001H370.9L358.8 7.20007H365.8L377.9 23.6001Z" fill="#DDE1E6"/>
<path d="M385.1 7.20007L388.2 11.3001H381.8L384.8 15.3001C384.9 15.2001 374.4 15.3001 374.4 15.3001L377.4 11.3001H371L374.1 7.20007H367.4L379.5 23.6001L391.6 7.20007H384.9H385.1ZM379.6 18.8001H378L379.6 16.6001L381.2 18.8001H379.6Z" fill="#DDE1E6"/>
<path d="M590.4 1.30005L590.3 1.40005H590.4V1.30005Z" fill="#DDE1E6"/>
<path d="M353.2 28.5H356.6H360L356.6 23.8L353.2 28.5Z" fill="#DDE1E6"/>
<path d="M354.8 7.20007H347.8L335.7 23.6001H342.7L354.8 7.20007Z" fill="#DDE1E6"/>
<path d="M351.1 23.6001L348 19.5001H354.4L351.4 15.5001C351.3 15.6001 361.8 15.5001 361.8 15.5001L358.8 19.5001H365.2L362.1 23.6001H368.8L356.7 7.20007L344.6 23.6001H351.3H351.1ZM356.6 12.0001H358.2L356.6 14.2001L355 12.0001H356.6Z" fill="#DDE1E6"/>
<path d="M337.4 1.40002H333.9H330.5L333.9 6.00002L337.4 1.40002Z" fill="#DDE1E6"/>
<path d="M332.2 23.6001H325.2L313.1 7.20007H320.1L332.2 23.6001Z" fill="#DDE1E6"/>
<path d="M339.4 7.20007L342.5 11.3001H336.1L339.1 15.3001C339.2 15.2001 328.7 15.3001 328.7 15.3001L331.7 11.3001H325.3L328.4 7.20007H321.7L333.8 23.6001L345.9 7.20007H339.2H339.4ZM333.9 18.8001H332.3L333.9 16.6001L335.5 18.8001H333.9Z" fill="#DDE1E6"/>
<path d="M307.8 28.5H311.3H314.7L311.3 23.8L307.8 28.5Z" fill="#DDE1E6"/>
<path d="M309.5 7.20007H302.5L290.4 23.6001H297.4L309.5 7.20007Z" fill="#DDE1E6"/>
<path d="M305.8 23.6001L302.7 19.5001H309.1L306.1 15.5001C306 15.6001 316.5 15.5001 316.5 15.5001L313.5 19.5001H319.9L316.8 23.6001H323.5L311.4 7.20007L299.3 23.6001H306H305.8ZM311.3 12.0001H312.9L311.3 14.2001L309.7 12.0001H311.3Z" fill="#DDE1E6"/>
<path d="M292 1.40002H288.6H285.2L288.6 6.00002L292 1.40002Z" fill="#DDE1E6"/>
<path d="M286.8 23.6001H279.8L267.7 7.20007H274.7L286.8 23.6001Z" fill="#DDE1E6"/>
<path d="M294 7.20007L297.1 11.3001H290.7L293.7 15.3001C293.8 15.2001 283.3 15.3001 283.3 15.3001L286.3 11.3001H279.9L283 7.20007H276.3L288.4 23.6001L300.5 7.20007H293.8H294ZM288.6 18.8001H287L288.6 16.6001L290.2 18.8001H288.6Z" fill="#DDE1E6"/>
<path d="M262.5 28.5H265.9H269.3L265.9 23.8L262.5 28.5Z" fill="#DDE1E6"/>
<path d="M264.1 7.20007H257.1L245 23.6001H252L264.1 7.20007Z" fill="#DDE1E6"/>
<path d="M260.4 23.6001L257.3 19.5001H263.7L260.7 15.5001C260.6 15.6001 271.1 15.5001 271.1 15.5001L268.1 19.5001H274.5L271.4 23.6001H278.1L266 7.20007L253.9 23.6001H260.6H260.4ZM265.9 12.0001H267.5L265.9 14.2001L264.3 12.0001H265.9Z" fill="#DDE1E6"/>
<path d="M246.6 1.40002H243.2H239.8L243.2 6.00002L246.6 1.40002Z" fill="#DDE1E6"/>
<path d="M241.4 23.6001H234.4L222.3 7.20007H229.3L241.4 23.6001Z" fill="#DDE1E6"/>
<path d="M248.7 7.20007L251.8 11.3001H245.4L248.4 15.3001C248.5 15.2001 238 15.3001 238 15.3001L241 11.3001H234.6L237.7 7.20007H231L243.1 23.6001L255.2 7.20007H248.5H248.7ZM243.2 18.8001H241.6L243.2 16.6001L244.8 18.8001H243.2Z" fill="#DDE1E6"/>
<path d="M217.1 28.5H220.5H224L220.5 23.8L217.1 28.5Z" fill="#DDE1E6"/>
<path d="M218.8 7.20007H211.8L199.7 23.6001H206.7L218.8 7.20007Z" fill="#DDE1E6"/>
<path d="M215.1 23.6001L212 19.5001H218.4L215.4 15.5001C215.3 15.6001 225.8 15.5001 225.8 15.5001L222.8 19.5001H229.2L226.1 23.6001H232.8L220.7 7.20007L208.6 23.6001H215.3H215.1ZM220.5 12.0001H222.1L220.5 14.2001L218.9 12.0001H220.5Z" fill="#DDE1E6"/>
<path d="M201.3 1.40002H197.9H194.4L197.9 6.00002L201.3 1.40002Z" fill="#DDE1E6"/>
<path d="M196.1 23.6001H189.1L177 7.20007H184L196.1 23.6001Z" fill="#DDE1E6"/>
<path d="M203.3 7.20007L206.4 11.3001H200L203 15.3001C203.1 15.2001 192.6 15.3001 192.6 15.3001L195.6 11.3001H189.2L192.3 7.20007H185.6L197.7 23.6001L209.8 7.20007H203.1H203.3ZM197.9 18.8001H196.3L197.9 16.6001L199.5 18.8001H197.9Z" fill="#DDE1E6"/>
<path d="M171.8 28.5H175.2H178.6L175.2 23.8L171.8 28.5Z" fill="#DDE1E6"/>
<path d="M173.4 7.20007H166.4L154.3 23.6001H161.3L173.4 7.20007Z" fill="#DDE1E6"/>
<path d="M169.7 23.6001L166.6 19.5001H173L170 15.5001C169.9 15.6001 180.4 15.5001 180.4 15.5001L177.4 19.5001H183.8L180.7 23.6001H187.4L175.3 7.20007L163.2 23.6001H169.9H169.7ZM175.2 12.0001H176.8L175.2 14.2001L173.6 12.0001H175.2Z" fill="#DDE1E6"/>
<path d="M155.9 1.40002H152.5H149.1L152.5 6.00002L155.9 1.40002Z" fill="#DDE1E6"/>
<path d="M150.7 23.6001H143.7L131.6 7.20007H138.6L150.7 23.6001Z" fill="#DDE1E6"/>
<path d="M158 7.20007L161.1 11.3001H154.7L157.7 15.3001C157.8 15.2001 147.3 15.3001 147.3 15.3001L150.3 11.3001H143.9L147 7.20007H140.3L152.4 23.6001L164.5 7.20007H157.8H158ZM152.5 18.8001H150.9L152.5 16.6001L154.1 18.8001H152.5Z" fill="#DDE1E6"/>
<path d="M126.4 28.5H129.8H133.3L129.8 23.8L126.4 28.5Z" fill="#DDE1E6"/>
<path d="M128 7.20007H121L108.9 23.6001H115.9L128 7.20007Z" fill="#DDE1E6"/>
<path d="M124.4 23.6001L121.3 19.5001H127.7L124.7 15.5001C124.7 15.6001 135.1 15.5001 135.1 15.5001L132.1 19.5001H138.5L135.4 23.6001H142.1L130 7.20007L117.9 23.6001H124.6H124.4ZM129.8 12.0001H131.4L129.8 14.2001L128.2 12.0001H129.8Z" fill="#DDE1E6"/>
<path d="M110.6 1.40002H107.1H103.7L107.1 6.00002L110.6 1.40002Z" fill="#DDE1E6"/>
<path d="M105.4 23.6001H98.4L86.3 7.20007H93.3L105.4 23.6001Z" fill="#DDE1E6"/>
<path d="M112.6 7.20007L115.7 11.3001H109.3L112.3 15.3001C112.3 15.2001 101.9 15.3001 101.9 15.3001L104.9 11.3001H98.5L101.6 7.20007H94.9L107 23.6001L119.1 7.20007H112.4H112.6ZM107.1 18.8001H105.5L107.1 16.6001L108.7 18.8001H107.1Z" fill="#DDE1E6"/>
<path d="M81 28.5H84.4H87.9L84.4 23.8L81 28.5Z" fill="#DDE1E6"/>
<path d="M82.7 7.20007H75.7L63.6 23.6001H70.6L82.7 7.20007Z" fill="#DDE1E6"/>
<path d="M79 23.6001L75.9 19.5001H82.3L79.3 15.5001C79.3 15.6001 89.7 15.5001 89.7 15.5001L86.7 19.5001H93.1L90 23.6001H96.7L84.6 7.20007L72.5 23.6001H79.2H79ZM84.4 12.0001H86L84.4 14.2001L82.8 12.0001H84.4Z" fill="#DDE1E6"/>
<path d="M65.2 1.40002H61.8H58.3L61.8 6.00002L65.2 1.40002Z" fill="#DDE1E6"/>
<path d="M60 23.6001H53L40.9 7.20007H47.9L60 23.6001Z" fill="#DDE1E6"/>
<path d="M67.2 7.20007L70.3 11.3001H63.9L66.9 15.3001C66.9 15.2001 56.5 15.3001 56.5 15.3001L59.5 11.3001H53.1L56.2 7.20007H49.5L61.6 23.6001L73.7 7.20007H67H67.2ZM61.8 18.8001H60.2L61.8 16.6001L63.4 18.8001H61.8Z" fill="#DDE1E6"/>
<path d="M35.7 28.5H39.1H42.5L39.1 23.8L35.7 28.5Z" fill="#DDE1E6"/>
<path d="M37.3 7.20007H30.3L18.2 23.6001H25.2L37.3 7.20007Z" fill="#DDE1E6"/>
<path d="M33.6 23.6001L30.5 19.5001H36.9L33.9 15.5001C33.9 15.6001 44.3 15.5001 44.3 15.5001L41.3 19.5001H47.7L44.6 23.6001H51.3L39.2 7.20007L27.1 23.6001H33.8H33.6ZM39.1 12.0001H40.7L39.1 14.2001L37.5 12.0001H39.1Z" fill="#DDE1E6"/>
<path d="M19.8 1.40002H16.4H13L16.4 6.00002L19.8 1.40002Z" fill="#DDE1E6"/>
<path d="M14.6 23.6001H7.6L-4.5 7.20007H2.5L14.6 23.6001Z" fill="#DDE1E6"/>
<path d="M21.9 7.20007L25 11.3001H18.6L21.6 15.3001C21.7 15.2001 11.2 15.3001 11.2 15.3001L14.2 11.3001H7.80001L10.9 7.20007H4.20001L16.3 23.6001L28.5 7.20007H21.8H21.9ZM16.4 18.8001H14.8L16.4 16.6001L18 18.8001H16.4Z" fill="#DDE1E6"/>
<path d="M1308.8 27.7001L1308.9 27.6001H1308.8V27.7001Z" fill="#DDE1E6"/>
<path d="M1139.4 27.7001L1139.5 27.6001H1139.4V27.7001Z" fill="#DDE1E6"/>
<path d="M1371.6 1.30005L1371.5 1.40005H1371.6V1.30005Z" fill="#DDE1E6"/>
<path d="M927.3 27.7001L927.4 27.6001H927.3V27.7001Z" fill="#DDE1E6"/>
<path d="M1159.5 1.30005L1159.4 1.40005H1159.5V1.30005Z" fill="#DDE1E6"/>
<path d="M757.8 27.7001L757.9 27.6001H757.8V27.7001Z" fill="#DDE1E6"/>
<path d="M990.1 1.30005L990 1.40005H990.1V1.30005Z" fill="#DDE1E6"/>
<path d="M778.2 1.30005L778.1 1.40005H778.2V1.30005Z" fill="#DDE1E6"/>
<path d="M376.5 27.7001L376.6 27.6001H376.5V27.7001Z" fill="#DDE1E6"/>
<path d="M608.8 1.30005L608.7 1.40005H608.8V1.30005Z" fill="#DDE1E6"/>
<path d="M164.4 27.7001L164.5 27.6001H164.4V27.7001Z" fill="#DDE1E6"/>
<path d="M227.2 1.30005L227.1 1.40005H227.2V1.30005Z" fill="#DDE1E6"/>
<path d="M1440 0H0V1.5H1440V0Z" fill="#DDE1E6"/>
</g>
<defs>
<clipPath id="clip0_4686_3901">
<rect width="1440" height="30" fill="white"/>
</clipPath>
</defs>
</svg>
