<svg width="120" height="120" viewBox="0 0 120 120" fill="none" xmlns="http://www.w3.org/2000/svg">
<g clip-path="url(#clip0_429_23092)">
<path fill-rule="evenodd" clip-rule="evenodd" d="M26.7646 3.75H77.7665C78.7347 3.75 79.5679 4.095 80.2525 4.77961L92.7068 17.2336C93.3914 17.9182 93.7364 18.7514 93.7364 19.7196V93.0077H23.249V7.26562C23.249 5.32922 24.8282 3.75 26.7646 3.75Z" fill="#F4F6F8"/>
<path fill-rule="evenodd" clip-rule="evenodd" d="M79.2227 4.05469V14.7478C79.2227 16.6842 80.8019 18.2634 82.7383 18.2634H93.4316C93.2612 17.8901 93.0194 17.5465 92.7067 17.2338L80.2525 4.77984C79.9398 4.46695 79.596 4.22508 79.2227 4.05469Z" fill="#CAD0D7"/>
<path fill-rule="evenodd" clip-rule="evenodd" d="M35.7744 15.7063C34.8683 15.7063 34.1338 14.9718 34.1338 14.0657C34.1338 13.1596 34.8683 12.425 35.7744 12.425H70.1397C71.0457 12.425 71.7803 13.1596 71.7803 14.0657C71.7803 14.9718 71.0457 15.7063 70.1397 15.7063H35.7744ZM35.7744 33.3728C34.8683 33.3728 34.1338 32.6383 34.1338 31.7322C34.1338 30.8261 34.8683 30.0915 35.7744 30.0915H50.9795C51.8856 30.0915 52.6201 30.8261 52.6201 31.7322C52.6201 32.6383 51.8856 33.3728 50.9795 33.3728H35.7744ZM35.7744 24.5397C34.8683 24.5397 34.1338 23.8051 34.1338 22.899C34.1338 21.9929 34.8683 21.2584 35.7744 21.2584H60.208C61.1141 21.2584 61.8486 21.9929 61.8486 22.899C61.8486 23.8051 61.1141 24.5397 60.208 24.5397H35.7744Z" fill="#CAD0D7"/>
<path fill-rule="evenodd" clip-rule="evenodd" d="M95.3491 116.25C100.636 116.25 104.921 111.964 104.921 106.678V58.9607C104.921 53.6741 100.636 49.3883 95.3491 49.3883H45.7641L36.1057 39.1555H17.5938C12.4819 39.1555 8.33789 43.2995 8.33789 48.4115V106.678C8.33789 111.964 12.6234 116.25 17.9102 116.25H95.3491Z" fill="#FDCD56"/>
<path fill-rule="evenodd" clip-rule="evenodd" d="M52.8184 78.3047L62.5183 68.6048L68.0596 74.146L58.3596 83.846L52.8184 78.3047Z" fill="#A9B0BB"/>
<path fill-rule="evenodd" clip-rule="evenodd" d="M59.4631 81.4529L55.2282 77.218C53.8294 75.8193 51.5405 75.8193 50.1415 77.218L30.6809 96.6786C29.2821 98.0774 29.2821 100.367 30.6809 101.765L34.9158 106C36.3146 107.399 38.6035 107.399 40.0025 106L59.4633 86.5396C60.8621 85.1408 60.8618 82.8517 59.4631 81.4529Z" fill="#636C77"/>
<path d="M103.432 72.8926C114.382 61.9424 114.382 44.1885 103.432 33.2382C92.4816 22.288 74.7277 22.288 63.7774 33.2382C52.8271 44.1885 52.8271 61.9424 63.7774 72.8926C74.7277 83.8429 92.4816 83.8429 103.432 72.8926Z" fill="#E4E8EB"/>
<path d="M92.6275 71.1679C102.63 66.1668 106.684 54.0042 101.683 44.002C96.6817 33.9997 84.5191 29.9455 74.5169 34.9466C64.5147 39.9478 60.4605 52.1104 65.4616 62.1126C70.4627 72.1148 82.6253 76.169 92.6275 71.1679Z" fill="#F4F6F8"/>
</g>
<defs>
<clipPath id="clip0_429_23092">
<rect width="120" height="120" fill="white"/>
</clipPath>
</defs>
</svg>
