<svg width="120" height="120" viewBox="0 0 120 120" fill="none" xmlns="http://www.w3.org/2000/svg">
<g clip-path="url(#clip0_429_27487)">
<path fill-rule="evenodd" clip-rule="evenodd" d="M119.133 47.8218L103.601 32.2897C102.938 31.6265 102.127 31.2866 101.182 31.2866H83.1588C82.2143 31.2866 81.4057 31.6265 80.74 32.2897L54.3588 58.671C53.2033 59.8265 53.2033 61.7015 54.3588 62.8499L79.233 87.7312C80.3814 88.8796 82.2635 88.8796 83.4119 87.7312L119.133 52.0007C120.291 50.8522 120.291 48.9772 119.133 47.8218Z" fill="#F1F1F1"/>
<path fill-rule="evenodd" clip-rule="evenodd" d="M79.2119 33.8179L54.3588 58.671C53.2033 59.8265 53.2033 61.7015 54.3588 62.8499L66.783 75.2812H72.3846C76.151 75.2812 79.2143 72.2179 79.2143 68.4585V33.8179H79.2119Z" fill="#D9D9D9"/>
<path fill-rule="evenodd" clip-rule="evenodd" d="M72.3822 14.9766H50.4119C49.4744 14.9766 48.6635 15.3164 48.0002 15.9797L35.2502 28.7297C34.5869 29.393 34.2471 30.1969 34.2471 31.1414V68.4586C34.2471 70.0852 35.576 71.4094 37.2025 71.4094H72.3799C74.0064 71.4094 75.3354 70.0875 75.3354 68.4586V17.932C75.34 16.3055 74.0111 14.9766 72.3822 14.9766Z" fill="#F1F1F1"/>
<path fill-rule="evenodd" clip-rule="evenodd" d="M34.2471 40.2095V68.4587C34.2471 70.0853 35.576 71.4095 37.2025 71.4095H61.0197C61.4908 69.2228 60.8744 66.8392 59.1729 65.1446L34.2471 40.2095Z" fill="#D9D9D9"/>
<path fill-rule="evenodd" clip-rule="evenodd" d="M16.5352 32.1492L0.996094 47.6882C0.330469 48.3539 0 49.1648 0 50.1V68.1304C0 69.0679 0.332813 69.8789 0.996094 70.5421L27.3844 96.9304C28.5328 98.0789 30.4148 98.0789 31.5633 96.9304L56.4375 72.0585C57.593 70.9031 57.593 69.0281 56.4375 67.8796L20.7141 32.1492C19.5656 31.0007 17.6836 31.0007 16.5352 32.1492Z" fill="#F1F1F1"/>
<path fill-rule="evenodd" clip-rule="evenodd" d="M102.391 31.4977C102.019 31.3571 101.613 31.2844 101.182 31.2844H83.1586C82.7273 31.2844 82.3289 31.3571 81.9492 31.4977L92.175 41.7165L102.391 31.4977Z" fill="#B3B3B3"/>
<path fill-rule="evenodd" clip-rule="evenodd" d="M48.9961 15.2742C48.6375 15.4406 48.2977 15.6726 48 15.9773L35.25 28.7273C34.9453 29.0273 34.7109 29.3648 34.5469 29.7234H48.9961V15.2742Z" fill="#B3B3B3"/>
<path fill-rule="evenodd" clip-rule="evenodd" d="M0.203906 48.8977C0.0726563 49.2704 0 49.6688 0 50.1V68.1305C0 68.5618 0.0726563 68.9602 0.20625 69.3329L10.432 59.1141L0.203906 48.8977Z" fill="#B3B3B3"/>
<path fill-rule="evenodd" clip-rule="evenodd" d="M22.4415 57.614H87.1454C88.7533 57.614 90.1361 58.1859 91.165 59.2804C92.2009 60.3773 92.5923 61.6851 92.3134 63.0937L84.7853 101.156C84.34 103.416 82.1884 105.023 79.6173 105.023C63.0681 105.023 46.5189 105.023 29.9697 105.023C27.4056 105.023 25.2517 103.416 24.8017 101.156L17.2736 63.096C16.9947 61.6874 17.3931 60.3796 18.422 59.2828C19.4579 58.1859 20.8407 57.614 22.4415 57.614Z" fill="#FEA832"/>
<path fill-rule="evenodd" clip-rule="evenodd" d="M22.4415 57.614H28.247C26.6462 57.614 25.2564 58.1859 24.2275 59.2804C23.1986 60.3749 22.8001 61.6851 23.079 63.0937L30.6072 101.156C31.0595 103.416 33.2111 105.023 35.7751 105.023H29.9697C27.4056 105.023 25.2517 103.416 24.8017 101.156L17.2736 63.096C16.9947 61.6874 17.3931 60.3796 18.422 59.2828C19.4579 58.1859 20.8407 57.614 22.4415 57.614Z" fill="#E5972D"/>
</g>
<defs>
<clipPath id="clip0_429_27487">
<rect width="120" height="120" fill="white"/>
</clipPath>
</defs>
</svg>
