<svg width="61" height="72" viewBox="0 0 61 72" fill="none" xmlns="http://www.w3.org/2000/svg">
<g clip-path="url(#clip0_4686_2441)">
<path d="M-0.0999756 62.8001C-0.0999756 59.9001 1.90002 57.9001 4.80002 57.9001C7.70002 57.9001 9.20002 59.6001 9.20002 62.4001C9.20002 65.2001 7.30002 67.3001 4.40002 67.3001C1.50002 67.3001 -0.0999756 65.5001 -0.0999756 62.8001ZM6.20002 65.3001C6.50002 65.0001 6.80002 64.0001 6.80002 62.6001C6.80002 60.4001 6.20002 59.2001 4.50002 59.2001C2.80002 59.2001 3.20002 59.4001 2.90002 59.7001C2.50002 60.3001 2.30002 61.4001 2.30002 62.6001C2.30002 64.6001 3.00002 65.8001 4.60002 65.8001C6.20002 65.8001 5.90002 65.6001 6.20002 65.3001Z" fill="#214D40"/>
<path d="M13.1 67.0001H9.29998L9.09998 66.2001L10.1 65.8001C10.9 63.9001 11.8 61.5001 12.6 59.3001L12.9 58.0001C13.7 58.0001 15 57.9001 15.8 57.9001C15.8 58.3001 16.1 58.8001 16.3 59.3001C17.1 61.6001 18.1 64.1001 18.7 65.8001L19.7 66.2001L19.5 67.0001H15.1L14.9 66.2001L16.1 65.8001C15.9 65.4001 15.8 64.8001 15.6 64.2001H12.4C12.2 64.8001 12.1 65.3001 12 65.8001L13.3 66.2001L13.1 67.0001ZM15.3 63.2001C14.9 62.0001 14.4 60.7001 14 59.5001C13.7 60.6001 13.3 61.8001 12.9 63.1001H15.3V63.2001Z" fill="#214D40"/>
<path d="M24.7001 63.5C24.2001 64.3 23.8 65.1 23.4 65.7C23.7 65.8 24.2 66 24.6 66.2L24.4 67H20.5L20.3 66.2L21.3 65.8C21.9 65.1 22.9 63.8 23.9 62.4C22.9 61.1 22 59.8 21.5 59.3C21.2 59.1 20.8 59 20.4 58.8L20.6 58C21.6 58 22.9001 58 23.7001 58C24.2001 58.9 25 60.2 25.9 61.4L27.1 59.3C26.8 59.2 26.3 59 25.9 58.8L26.1 58H30L30.2001 58.8L29.2001 59.2C28.6 59.9 27.6 61.1 26.6 62.5C27.6 63.9 28.6 65.1 29.1 65.7C29.4001 65.9 29.8001 66 30.2001 66.2L30 67C29 67 27.7 67 26.9 67C26.4 66.1 25.5001 64.7 24.6 63.5H24.7001Z" fill="#214D40"/>
<path d="M34.7001 67.0001H30.9001L30.7001 66.2001L31.7001 65.8001C32.5001 63.9001 33.4001 61.5001 34.2001 59.3001L34.5001 58.0001C35.3001 58.0001 36.6001 57.9001 37.4001 57.9001C37.4001 58.3001 37.7001 58.8001 37.9001 59.3001C38.7001 61.6001 39.7001 64.1001 40.3001 65.8001L41.3001 66.2001L41.1001 67.0001H36.7001L36.5001 66.2001L37.7001 65.8001C37.5001 65.4001 37.4001 64.8001 37.2001 64.2001H34.0001C33.8001 64.8001 33.7001 65.3001 33.6001 65.8001L34.9001 66.2001L34.7001 67.0001ZM36.9001 63.2001C36.5001 62.0001 36.0001 60.7001 35.6001 59.5001C35.3001 60.6001 34.9001 61.8001 34.5001 63.1001H36.9001V63.2001Z" fill="#214D40"/>
<path d="M47.6 65.5C47.6 65.2 47.9 64.6001 48.1 63.9001C48.4 63.9001 49.3 63.9001 49.6 63.9001C49.6 64.5001 49.6 65.3001 49.6 65.8001L49.4001 66.2C48.6001 66.7 47.4 67.1 46 67.1C43.1 67.1 41.3 65.4 41.3 62.6C41.3 59.8 43.5001 57.8 46.2001 57.8C48.9001 57.8 48.6 58.1 49.5 58.6L49.7001 59C49.6 59.7 49.4001 60.7 49.2001 61.3C48.9001 61.3 48.1 61.3 47.8 61.3C47.7 60.6 47.5001 59.9 47.4001 59.5C47.1001 59.3 46.6 59.2001 46.1 59.2001C45.6 59.2001 44.9 59.3 44.6 59.5C44 60.2 43.7001 61.2 43.7001 62.5C43.7001 64.4 44.6 65.7 46.3 65.7C48 65.7 47.3 65.7 47.6 65.5Z" fill="#214D40"/>
<path d="M54.5 67.0001H50.7L50.5 66.2001L51.5 65.8001C52.3 63.9001 53.2 61.5001 54 59.3001L54.3 58.0001C55.1 58.0001 56.4 57.9001 57.2 57.9001C57.2 58.3001 57.5 58.8001 57.7 59.3001C58.5 61.6001 59.5 64.1001 60.1 65.8001L61.1 66.2001L60.9 67.0001H56.5L56.3 66.2001L57.5 65.8001C57.3 65.4001 57.2 64.8001 57 64.2001H53.8C53.6 64.8001 53.5 65.3001 53.4 65.8001L54.7 66.2001L54.5 67.0001ZM56.7 63.2001C56.3 62.0001 55.8 60.7001 55.4 59.5001C55.1 60.6001 54.7 61.8001 54.3 63.1001H56.7V63.2001Z" fill="#214D40"/>
<path d="M6.10007 70.0001H6.70007V70.8001C6.50007 71.0001 6.10007 71.1001 5.80007 71.1001C5.20007 71.1001 4.70007 70.7001 4.70007 70.1001C4.70007 69.5001 5.20007 69.1001 5.80007 69.1001C6.40007 69.1001 6.50007 69.2001 6.70007 69.5001L6.30007 69.9001C6.20007 69.8001 6.00007 69.7001 5.90007 69.7001C5.60007 69.7001 5.40007 69.9001 5.40007 70.2001C5.40007 70.5001 5.60007 70.7001 5.90007 70.7001C6.20007 70.7001 6.10007 70.7001 6.20007 70.7001V70.2001L6.10007 70.0001Z" fill="#214D40"/>
<path d="M7.70007 70.1001C7.70007 69.5001 8.20007 69.1001 8.80007 69.1001C9.40007 69.1001 9.90007 69.5001 9.90007 70.1001C9.90007 70.7001 9.40007 71.1001 8.80007 71.1001C8.20007 71.1001 7.70007 70.7001 7.70007 70.1001ZM9.30007 70.1001C9.30007 69.8001 9.10007 69.6001 8.90007 69.6001C8.70007 69.6001 8.50007 69.8001 8.50007 70.1001C8.50007 70.4001 8.70007 70.6001 8.90007 70.6001C9.10007 70.6001 9.30007 70.4001 9.30007 70.1001Z" fill="#214D40"/>
<path d="M13.0001 70.5001C13.0001 70.8001 12.7001 71.0001 12.2001 71.0001H11.1001V69.1001H12.1001C12.6001 69.1001 12.9001 69.3001 12.9001 69.6001C12.9001 69.9001 12.9001 69.9001 12.6001 70.0001C12.8001 70.0001 12.9001 70.3001 12.9001 70.5001H13.0001ZM11.7001 69.6001V69.9001H12.0001C12.1001 69.9001 12.2001 69.9001 12.2001 69.8001C12.2001 69.7001 12.2001 69.7001 12.0001 69.7001H11.7001V69.6001ZM12.3001 70.4001C12.3001 70.4001 12.3001 70.2001 12.1001 70.2001H11.7001V70.5001H12.1001C12.2001 70.5001 12.3001 70.5001 12.3001 70.3001V70.4001Z" fill="#214D40"/>
<path d="M14.0001 69.1001H14.6001V71.0001H14.0001V69.1001Z" fill="#214D40"/>
<path d="M17.5 70.6002V71.1002H15.9V69.2002H17.5V69.7002H16.5V69.9002H17.3V70.4002H16.5V70.7002H17.5V70.6002Z" fill="#214D40"/>
<path d="M19.4001 70.6002H19.2001V71.1002H18.6001V69.2002H19.6001C20.2001 69.2002 20.5001 69.5002 20.5001 69.9002C20.5001 70.3002 20.4001 70.4002 20.1001 70.5002L20.5001 71.1002H19.8001L19.5001 70.6002H19.4001ZM19.4001 69.6002H19.1001V70.1002H19.4001C19.6001 70.1002 19.7001 70.1002 19.7001 69.9002C19.7001 69.7002 19.7001 69.7002 19.4001 69.7002V69.6002Z" fill="#214D40"/>
<path d="M23.4001 69.1001V71.0001H22.9001L22.2001 70.1001V71.0001H21.6001V69.1001H22.1001L22.8001 70.0001V69.1001H23.4001Z" fill="#214D40"/>
<path d="M24.4 70.1001C24.4 69.5001 24.9 69.1001 25.5 69.1001C26.1 69.1001 26.6 69.5001 26.6 70.1001C26.6 70.7001 26.1 71.1001 25.5 71.1001C24.9 71.1001 24.4 70.7001 24.4 70.1001ZM26 70.1001C26 69.8001 25.8 69.6001 25.6 69.6001C25.4 69.6001 25.2 69.8001 25.2 70.1001C25.2 70.4001 25.4 70.6001 25.6 70.6001C25.8 70.6001 26 70.4001 26 70.1001Z" fill="#214D40"/>
<path d="M29.4 69.1001H30.4C31 69.1001 31.5 69.5001 31.5 70.1001C31.5 70.7001 31.1 71.1001 30.4 71.1001H29.4V69.2001V69.1001ZM30.3 70.5001C30.6 70.5001 30.8 70.3001 30.8 70.0001C30.8 69.7001 30.6 69.5001 30.3 69.5001H30V70.4001H30.3V70.5001Z" fill="#214D40"/>
<path d="M34.2001 70.6002V71.1002H32.6001V69.2002H34.2001V69.7002H33.2001V69.9002H34.0001V70.4002H33.2001V70.7002H34.2001V70.6002Z" fill="#214D40"/>
<path d="M35.2001 69.1001H35.8001V70.5001H36.7001V71.0001H35.1001V69.1001H35.2001Z" fill="#214D40"/>
<path d="M41.1001 70.6002V71.1002H39.5001V69.2002H41.1001V69.7002H40.1001V69.9002H40.9001V70.4002H40.1001V70.7002H41.1001V70.6002Z" fill="#214D40"/>
<path d="M42.1 70.9002L42.3 70.4002C42.5 70.5002 42.7 70.6002 42.9 70.6002C43.1 70.6002 43.2 70.6002 43.2 70.6002C43.2 70.3002 42.1 70.6002 42.1 69.8002C42.1 69.0002 42.4 69.2002 43 69.2002C43.6 69.2002 43.5 69.2002 43.7 69.4002L43.5 69.9002C43.3 69.9002 43.1 69.8002 42.9 69.8002C42.7 69.8002 42.6 69.8002 42.6 69.9002C42.6 70.1002 43.7 69.9002 43.7 70.7002C43.7 71.5002 43.4 71.3002 42.8 71.3002C42.2 71.3002 42.2 71.3002 41.9 71.1002L42.1 70.9002Z" fill="#214D40"/>
<path d="M45.2001 69.6001H44.6001V69.1001H46.4001V69.6001H45.8001V71.0001H45.2001V69.6001Z" fill="#214D40"/>
<path d="M48.7001 70.7001H48.0001V71.0001H47.2001L48.1001 69.1001H48.7001L49.6001 71.0001H48.9001V70.7001H48.7001ZM48.5001 70.2001L48.3001 69.7001L48.1001 70.2001H48.5001Z" fill="#214D40"/>
<path d="M50.5001 69.1001H51.5001C52.1001 69.1001 52.6001 69.5001 52.6001 70.1001C52.6001 70.7001 52.2001 71.1001 51.5001 71.1001H50.5001V69.2001V69.1001ZM51.4001 70.5001C51.7001 70.5001 51.9001 70.3001 51.9001 70.0001C51.9001 69.7001 51.7001 69.5001 51.4001 69.5001H51.1001V70.4001H51.4001V70.5001Z" fill="#214D40"/>
<path d="M53.5001 70.1001C53.5001 69.5001 54.0001 69.1001 54.6001 69.1001C55.2001 69.1001 55.7001 69.5001 55.7001 70.1001C55.7001 70.7001 55.2001 71.1001 54.6001 71.1001C54.0001 71.1001 53.5001 70.7001 53.5001 70.1001ZM55.1001 70.1001C55.1001 69.8001 54.9001 69.6001 54.7001 69.6001C54.5001 69.6001 54.3001 69.8001 54.3001 70.1001C54.3001 70.4001 54.5001 70.6001 54.7001 70.6001C54.9001 70.6001 55.1001 70.4001 55.1001 70.1001Z" fill="#214D40"/>
<path d="M49.4001 15.9002C49.4001 14.5002 48.9001 13.0002 48.1001 11.8002C47.1001 10.3002 45.7001 9.00015 44.0001 8.30015C42.3001 7.60015 40.3001 7.50015 38.3001 7.60015C38.3001 8.50015 38.2001 9.60015 38.5001 10.4002C38.8001 11.3001 39.8001 11.9002 40.7001 12.0002C42.6001 12.0002 44.2001 13.5002 44.7001 15.3002C44.8001 15.8002 44.8001 16.3001 45.0001 16.8001C45.1001 17.3001 45.3001 17.7002 45.7001 18.1002C46.2001 18.6002 47.0001 18.9002 47.7001 18.9002H56.1001V16.6002C56.1001 14.6002 55.8001 12.5002 55.2001 10.7002C54.6001 9.00015 53.7001 7.40015 52.5001 6.10015C50.4001 3.80015 47.6001 2.00015 44.6001 1.50015C42.6001 1.00015 40.5001 1.20015 38.4001 1.20015V5.30015C38.4001 5.40015 38.4001 5.60015 38.5001 5.60015H41.1001C43.4001 5.70015 45.7001 6.60015 47.6001 8.20015C48.9001 9.20015 49.9001 10.6002 50.6001 12.2002C51.3001 13.6002 51.6001 15.2002 51.6001 16.7002H49.9001C49.6001 16.7002 49.3001 16.4002 49.3001 16.1002L49.4001 15.9002Z" fill="#214D40"/>
<path d="M25.9001 4.69995V3.79995C25.9001 2.99995 26.6001 2.29995 27.3001 2.19995H28.5001C29.0001 1.69995 29.5001 1.19995 30.2001 1.19995H24.7001V6.49995C24.7001 6.19995 24.9001 5.79995 25.0001 5.59995C25.2001 5.39995 25.5001 5.09995 25.7001 4.79995H25.8001L25.9001 4.69995Z" fill="#214D40"/>
<path d="M32.3 2.0001H33.2C33.9 2.0001 34.5 2.5001 34.7 3.2001C34.9 3.7001 34.8 4.2001 34.9 4.7001C35.1 4.9001 35.4 5.2001 35.6 5.5001C35.8 5.7001 35.8 6.1001 35.9 6.4001V1.1001H30.4C30.6 1.1001 31 1.1001 31.2 1.3001C31.5 1.5001 31.8 1.9001 32.1 2.1001L32.3 2.0001Z" fill="#214D40"/>
<path d="M29.4 6.59998C29.4 7.29998 30.1 7.79998 30.8 7.59998C31.4 7.59998 31.7 6.89998 31.7 6.39998C31.7 5.69998 30.9 5.09998 30.2 5.49998C29.7 5.59998 29.4 6.19998 29.5 6.69998H29.4V6.59998Z" fill="#214D40"/>
<path d="M24.9 12.1H30.4C29.7 12.1 29.1001 11.5 28.7001 11.1H27.5C26.9 11 26.5001 10.6 26.2001 10.1C26.0001 9.6 26 9.1 26 8.6C25.8 8.4 25.5 8.1 25.3 7.9C25.1 7.7 25 7.3 24.8 7V12.5V12.3L24.9 12.1Z" fill="#214D40"/>
<path d="M35.0001 8.4001V9.4001C35.0001 10.1001 34.4001 10.7001 33.8001 10.9001C33.3001 11.1001 32.9001 10.9001 32.4001 11.1001C31.9001 11.6001 31.4001 12.1001 30.7001 12.1001H36.2001V6.6001C36.2001 6.9001 36.1001 7.2001 35.9001 7.5001C35.7001 7.7001 35.4001 8.1001 35.2001 8.3001H35.1001L35.0001 8.4001Z" fill="#214D40"/>
<path d="M29.4 14.3H20.1C19.5 14.3 18.9 14.5 18.6 15C18.3 15.5 18.1 16 18.1 16.5H29.3V14.3H29.4Z" fill="#214D40"/>
<path d="M31.6 14.3V25.5H37.2C36 23.6 35 21.8 33.9 19.9C34.9 18 36.1 16.2 37.2 14.3C35.3 14.3 33.5 14.3 31.6 14.3Z" fill="#214D40"/>
<path d="M37.2001 25.5H42.7001V16.2C42.7001 15.3 41.9001 14.3 41.0001 14.3H37.3001C38.3001 16.2 39.5001 18 40.6001 19.9C39.6001 21.8 38.4001 23.6 37.3001 25.5H37.2001Z" fill="#214D40"/>
<path d="M18.2001 21H29.4001V18.8H18.2001V21Z" fill="#214D40"/>
<path d="M10.6 23.7001C9.90002 22.8001 9.20002 21.8001 8.40002 20.9001H4.90002V32.1001H8.30002C9.10002 31.2001 9.80002 30.2001 10.6 29.3001C9.80002 28.4001 9.10002 27.4001 8.30002 26.5001C9.10002 25.6001 9.80002 24.6001 10.6 23.7001Z" fill="#214D40"/>
<path d="M16 21H10.5C11.2 21.9 12 22.9 12.8 23.8C12 24.7 11.3 25.7 10.5 26.6C11.3 27.5 12 28.5 12.8 29.4C12 30.3 11.3 31.3 10.5 32.2H16V21Z" fill="#214D40"/>
<path d="M44.9 20.9001V32.1001H56.1V20.9001H53.9V27.5001H47.3V20.9001H45H44.9Z" fill="#214D40"/>
<path d="M49.4 20.9001V25.4001H51.6V20.9001H49.4Z" fill="#214D40"/>
<path d="M29.4001 25.5V23.3H18.2001V25.5H29.4001Z" fill="#214D40"/>
<path d="M26.8001 31.4V32.5999H28.1001V33.9H29.4001V27.7H18.2001V31.4H19.5001V32.5999H20.8001V33.9H24.5001V31.5H23.2001V32.7999H22.0001V30.4H25.7001V31.7H27.0001H26.8001V31.4Z" fill="#214D40"/>
<path d="M42.6 34.2999H38.2V32.0999H42.6V29.9H40.4V27.7H38.2V32.0999H36V27.7H33.8V29.9H31.6V32.0999H36V34.2999H31.6V36.5H33.8V38.7H36V34.2999H38.2V38.7H40.4V36.5H42.6V34.2999Z" fill="#214D40"/>
<path d="M18.2001 37.2001C18.2001 38.1001 19.2001 38.8001 20.2001 38.8001H29.4001V35.1001H18.2001V37.2001Z" fill="#214D40"/>
<path d="M27.1001 42.2001C27.8001 42.4001 28.6001 42.5001 29.3001 42.4001C29.9001 42.4001 30.3001 42.1001 30.9001 41.9001C31.7001 41.8001 32.5001 41.8001 33.2001 41.9001C34.1001 41.9001 34.9001 42.5001 35.9001 42.5001V41.1001H24.7001V41.9001C25.4001 41.9001 26.2001 42.0001 26.9001 42.2001H27.0001H27.1001Z" fill="#214D40"/>
<path d="M28 45.8C28.7 45.8 29.4 45.8 30.1 45.6C31.6 45 33.2 45 34.6 45.6C35.1 45.7 35.5 45.8 36 45.8V44.6C35.5 44.6 35.1 44.6 34.6 44.5C34 44.4 33.6 44.2 32.9 44C32.2 44 31.5 44 30.9 44.2C29.4 44.8 27.8 44.8 26.4 44.2C25.9 44.1 25.5 44 25 44V45.2C25.5 45.2 25.9 45.2 26.4 45.3C27 45.4 27.6 45.8 28.1 45.8H28Z" fill="#214D40"/>
<path d="M31.6 47.4001C30.9001 47.4001 30.3 47.9001 29.6 47.9001C28.6 48.0001 27.4 47.9001 26.3 47.7001C25.8 47.5001 25.3 47.5001 24.8 47.5001V48.8001C25.5 48.8001 26.3 48.9001 26.9 49.1001C27.7 49.3001 28.5001 49.4001 29.2001 49.3001C29.7001 49.3001 30.1 49.1001 30.6 49.0001C31.4001 48.8001 32.2 48.8001 33 48.9001C33.9 48.9001 34.9 49.5001 35.8 49.5001V48.2001C35.1 48.2001 34.3 48.1001 33.6 47.9001C32.9 47.7001 32.1 47.6001 31.3 47.7001H31.5L31.6 47.4001Z" fill="#214D40"/>
<path d="M31.6 50.8001C31.1 50.8001 30.7 51.0001 30.3 51.1001C29.4 51.3001 28.6 51.3001 27.6 51.2001C26.7 51.2001 25.9 50.6001 24.8 50.6001V52.0001H36V51.2001C35.2 51.2001 34.5 51.1001 33.8 50.9001C33.1 50.7001 32.3 50.7001 31.6 50.7001V50.8001Z" fill="#214D40"/>
<path d="M9.1 18.7001C9.2 18.7001 9.4 18.7001 9.4 18.5V15.5C9.6 13.5 10.3 11.5 11.6 9.90005C13.1 7.80005 15.4 6.30005 17.9 5.70005C18.7 5.50005 19.6 5.50005 20.5 5.40005V7.50005C20.3 7.70005 19.9 7.70005 19.6 7.70005C18.2 7.80005 16.9 8.30005 15.8 9.10005C14.6 9.90005 13.6 11 12.9 12.1C12 13.7 11.7 15.6 11.6 17.3V18.6C12.4 18.6 13.3 18.6 14.2 18.4C15 18.2 15.6 17.5 15.8 16.7C16 16.2 15.8 15.7 16 15.2C16.5 13.6 18 12.3 19.6 12.1C20.3 12.1 21.1 11.9 21.7 11.4C22.3 10.9 22.6 10.1 22.6 9.30005V0.800049H20.3C19.4 0.800049 18.6 0.800049 17.6 1.00005C15.9 1.20005 14.1 1.70005 12.5 2.50005C10.5 3.50005 8.8 5.10005 7.4 6.90005C5.9 9.60005 5 12.6 5 15.7V18.7001H9.2H9.1Z" fill="#214D40"/>
<path d="M56 34.4001H51.9001C51.8001 34.4001 51.4001 34.4001 51.4001 34.5001V36.2001C51.4001 37.5001 51.3 38.6001 50.8 39.8001C49.9 42.7001 47.8 45.1001 45 46.4001C43.5 47.1001 41.9001 47.6001 40.2001 47.4001V45.5001C40.2001 45.3001 40.5 45.2001 40.8 45.2001C42.2 45.2001 43.7001 44.7001 44.9001 43.9001C46.2001 43.0001 47.3 41.9001 48 40.5001C48.7 39.1001 49 37.6001 49 36.0001V34.1001H47.1C46.1 34.1001 45.1001 34.8001 44.7001 35.7001C44.5001 36.3001 44.5001 36.9001 44.4001 37.4001C43.9001 39.1001 42.3 40.4001 40.6 40.5001C39.8 40.6001 39 40.8001 38.5 41.5001C38.2 42.0001 37.8 42.5001 37.8 43.2001V51.6001H40C41 51.6001 42.1 51.5001 43.1 51.4001C44.7 51.2001 46.4001 50.7001 47.9001 50.0001C49.1001 49.4001 50.1 48.6001 51 47.8001C53.3 45.6001 55.0001 42.7001 55.4001 39.4001C55.7001 37.7001 55.5 35.8001 55.6 33.9001H55.8L56 34.4001Z" fill="#214D40"/>
<path d="M11.6 37.1C11.6 37.9 11.7 38.7 12.1 39.4C12.6 40.9 13.5 42.1 14.7 43.1C15.9 44.3 17.5 45 19 45.2C20.3 45.4 21.6 45.4 22.7 45.4C22.7 44.6 22.7 43.7 22.6 42.8C22.3 41.8 21.3 41.1 20.3 40.9C18.2 40.9 16.5 39.2 16.1 37.1C16.1 36.6 15.9 36.1 15.6 35.6C15.3 34.9 14.7 34.4 14 34.2C13.5 34.1 13 34.2 12.5 34.2H4.90002V36.4C4.90002 38.5 5.20002 40.6 5.90002 42.6C6.40002 44.1 7.30002 45.5 8.20002 46.7C10.3 49.3 13.2 51.1 16.5 51.7C18.5 52.2 20.6 52 22.7 52V47.6C21.5 47.5 20.3 47.6 19.1 47.5C17 47.3 15 46.3 13.4 45.1C12.2 44.1 11.2 42.9 10.5 41.5C9.70002 40 9.30002 38.4 9.30002 36.6H10.9C11.1 36.6 11.5 36.8 11.5 37.1H11.6Z" fill="#214D40"/>
</g>
<defs>
<clipPath id="clip0_4686_2441">
<rect width="61" height="72" fill="white"/>
</clipPath>
</defs>
</svg>
