<svg width="180" height="40" viewBox="0 0 180 40" fill="none" xmlns="http://www.w3.org/2000/svg">
<g clip-path="url(#clip0_4683_3908)">
<path d="M52.74 19.1498C52.74 13.0648 56.88 8.94849 62.91 8.94849C68.94 8.94849 72.09 12.4384 72.09 18.1655C72.09 23.8926 68.04 28.2773 62.19 28.2773C56.34 28.2773 52.74 24.7874 52.74 19.1498ZM65.79 24.34C66.33 23.6241 67.14 21.5659 67.14 18.7919C67.14 14.3176 65.88 11.812 62.28 11.812C58.68 11.812 59.67 12.2594 59.04 12.7964C58.14 14.1386 57.69 16.2863 57.69 18.7919C57.69 22.9082 59.22 25.3243 62.55 25.3243C65.88 25.3243 65.25 24.9664 65.88 24.34H65.79Z" fill="white"/>
<path d="M80.28 27.8299H72.45L72.09 26.2192L74.16 25.4138C75.78 21.4764 77.67 16.5547 79.29 11.991L80.01 9.30642C81.72 9.21693 84.42 9.03796 85.95 9.03796C86.13 9.84333 86.58 10.9172 86.94 11.991C88.56 16.6442 90.63 22.0134 91.98 25.5033L94.05 26.3087L93.69 27.9194H84.6L84.24 26.3087L86.76 25.5033C86.4 24.6084 86.04 23.4451 85.68 22.2818L79.02 22.4608C78.66 23.5346 78.39 24.5189 78.12 25.5928L80.73 26.3981L80.37 28.0089L80.28 27.8299ZM84.78 19.8657C83.97 17.3601 82.98 14.6755 82.08 12.2594C81.36 14.4966 80.55 17.0917 79.74 19.7762H84.78V19.8657Z" fill="white"/>
<path d="M104.31 20.5816C103.32 22.1923 102.42 23.803 101.7 25.1453C102.33 25.4138 103.32 25.8612 104.13 26.2192L103.77 27.8299H95.6699L95.3099 26.2192L97.2899 25.3243C98.6399 23.803 100.62 21.208 102.69 18.3444C100.62 15.5704 98.7299 13.0648 97.6499 11.9015C97.0199 11.5435 96.2099 11.1856 95.3999 10.9171L95.7599 9.3064C97.8299 9.3064 100.44 9.3064 102.15 9.21692C103.14 11.0066 104.85 13.6912 106.74 16.2863L109.17 11.9015C108.54 11.633 107.55 11.1856 106.74 10.8277L107.1 9.21692H115.2L115.56 10.8277L113.58 11.7225C112.32 13.1543 110.34 15.7494 108.27 18.5234C110.34 21.3869 112.41 23.982 113.49 25.1453C114.12 25.5033 114.93 25.8612 115.74 26.1297L115.38 27.7404C113.31 27.7404 110.7 27.7404 108.99 27.8299C108 25.9507 106.11 23.1766 104.22 20.4921L104.31 20.5816Z" fill="white"/>
<path d="M125.19 27.8299H117.36L117 26.2192L119.07 25.4138C120.69 21.4764 122.58 16.5547 124.2 11.991L124.92 9.30642C126.63 9.21693 129.33 9.03796 130.86 9.03796C131.04 9.84333 131.49 10.9172 131.85 11.991C133.47 16.6442 135.54 22.0134 136.89 25.5033L138.96 26.3087L138.6 27.9194H129.51L129.15 26.3087L131.67 25.5033C131.31 24.6084 130.95 23.4451 130.59 22.2818L123.93 22.4608C123.57 23.5346 123.3 24.5189 123.03 25.5928L125.64 26.3981L125.28 28.0089L125.19 27.8299ZM129.78 19.8657C128.97 17.3601 127.98 14.6755 127.08 12.2594C126.36 14.4966 125.55 17.0917 124.74 19.7762H129.78V19.8657Z" fill="white"/>
<path d="M152.01 24.7874C152.19 24.2505 152.64 22.9977 153 21.4765C153.63 21.4765 155.43 21.4765 156.15 21.566C156.15 22.7293 156.24 24.519 156.24 25.5033L155.88 26.3087C154.26 27.3825 151.65 28.1879 148.77 28.1879C142.74 28.1879 139.05 24.6085 139.05 18.7919C139.05 12.9753 143.55 8.76953 149.22 8.76953C154.89 8.76953 154.17 9.48542 156.06 10.3803L156.51 11.1856C156.24 12.6174 155.79 14.6756 155.43 16.0179C154.8 16.0179 153.18 16.0179 152.46 15.9284C152.19 14.4071 151.83 12.9753 151.56 12.2595C151.02 11.9015 149.94 11.7226 148.86 11.7226C147.78 11.7226 146.43 11.991 145.8 12.3489C144.63 13.7807 143.91 15.8389 143.91 18.5234C143.91 22.5503 145.71 25.1454 149.22 25.1454C152.73 25.1454 151.38 24.9664 151.83 24.6979L152.01 24.7874Z" fill="white"/>
<path d="M166.32 27.8299H158.49L158.13 26.2192L160.2 25.4138C161.82 21.4764 163.71 16.5547 165.33 11.991L166.05 9.30642C167.76 9.21693 170.46 9.03796 171.99 9.03796C172.17 9.84333 172.62 10.9172 172.98 11.991C174.6 16.6442 176.67 22.0134 178.02 25.5033L180.09 26.3087L179.73 27.9194H170.64L170.28 26.3087L172.8 25.5033C172.44 24.6084 172.08 23.4451 171.72 22.2818L165.06 22.4608C164.7 23.5346 164.43 24.5189 164.16 25.5928L166.77 26.3981L166.41 28.0089L166.32 27.8299ZM170.82 19.8657C170.01 17.3601 169.02 14.6755 168.12 12.2594C167.4 14.4966 166.59 17.0917 165.78 19.7762H170.82V19.8657Z" fill="white"/>
<path d="M65.6999 34.0045H66.8699V35.7047C66.4199 36.0626 65.6999 36.2416 65.0699 36.2416C63.7199 36.2416 62.8199 35.3467 62.8199 34.0939C62.8199 32.8411 63.8099 31.9463 65.1599 31.9463C66.5099 31.9463 66.5999 32.2147 67.0499 32.7517L66.1499 33.557C65.8799 33.2886 65.6099 33.1096 65.2499 33.1096C64.6199 33.1096 64.2599 33.4675 64.2599 34.0939C64.2599 34.7203 64.6199 35.0783 65.2499 35.0783C65.8799 35.0783 65.6099 35.0783 65.7899 34.9888V34.0045H65.6999Z" fill="white"/>
<path d="M69.0299 34.1834C69.0299 32.9306 70.0199 32.0358 71.2799 32.0358C72.5399 32.0358 73.5299 32.9306 73.5299 34.1834C73.5299 35.4362 72.5399 36.3311 71.2799 36.3311C70.0199 36.3311 69.0299 35.4362 69.0299 34.1834ZM72.2699 34.1834C72.2699 33.557 71.8199 33.1991 71.3699 33.1991C70.9199 33.1991 70.4699 33.557 70.4699 34.1834C70.4699 34.8098 70.9199 35.1678 71.3699 35.1678C71.8199 35.1678 72.2699 34.8098 72.2699 34.1834Z" fill="white"/>
<path d="M79.92 35.0783C79.92 35.7941 79.29 36.1521 78.21 36.1521H75.96V32.1252H78.12C79.2 32.1252 79.74 32.5727 79.74 33.1991C79.74 33.8255 79.56 33.915 79.2 34.0939C79.65 34.2729 79.92 34.6308 79.92 35.0783ZM77.22 33.1096V33.736H77.85C78.12 33.736 78.3 33.6465 78.3 33.4675C78.3 33.2886 78.12 33.1991 77.85 33.1991H77.22V33.1096ZM78.48 34.8993C78.48 34.7203 78.3 34.5413 78.03 34.5413H77.22V35.1677H78.03C78.3 35.1677 78.48 35.0783 78.48 34.8098V34.8993Z" fill="white"/>
<path d="M82.08 32.1252H83.43V36.1521H82.08V32.1252Z" fill="white"/>
<path d="M89.2799 35.1677V36.1521H85.95V32.1252H89.2799V33.1096H87.3V33.557H89.01V34.5413H87.3V35.0783H89.37L89.2799 35.1677Z" fill="white"/>
<path d="M93.2399 35.1677H92.8799V36.1521H91.5299V32.1252H93.5099C94.6799 32.1252 95.3999 32.7516 95.3999 33.6465C95.3999 34.5413 95.1299 34.6308 94.5899 34.8993L95.3999 36.1521H93.9599L93.2399 35.1677ZM93.4199 33.1991H92.8799V34.1834H93.4199C93.7799 34.1834 93.9599 34.0044 93.9599 33.736C93.9599 33.4675 93.7799 33.2886 93.4199 33.2886V33.1991Z" fill="white"/>
<path d="M101.61 32.1252V36.1521H100.53L98.9999 34.3624V36.1521H97.6499V32.1252H98.7299L100.26 33.915V32.1252H101.61Z" fill="white"/>
<path d="M103.77 34.1834C103.77 32.9306 104.76 32.0358 106.02 32.0358C107.28 32.0358 108.27 32.9306 108.27 34.1834C108.27 35.4362 107.28 36.3311 106.02 36.3311C104.76 36.3311 103.77 35.4362 103.77 34.1834ZM107.01 34.1834C107.01 33.557 106.56 33.1991 106.11 33.1991C105.66 33.1991 105.21 33.557 105.21 34.1834C105.21 34.8098 105.66 35.1678 106.11 35.1678C106.56 35.1678 107.01 34.8098 107.01 34.1834Z" fill="white"/>
<path d="M114.12 32.1252H116.1C117.45 32.1252 118.35 32.9306 118.35 34.1834C118.35 35.4362 117.45 36.2416 116.1 36.2416H114.12V32.2147V32.1252ZM116.01 35.0783C116.55 35.0783 117 34.7203 117 34.0939C117 33.4675 116.64 33.1096 116.01 33.1096H115.47V34.9888H116.01V35.0783Z" fill="white"/>
<path d="M124.02 35.1677V36.1521H120.69V32.1252H124.02V33.1096H122.04V33.557H123.75V34.5413H122.04V35.0783H124.11L124.02 35.1677Z" fill="white"/>
<path d="M126.27 32.1252H127.62V35.0783H129.42V36.1521H126.18V32.1252H126.27Z" fill="white"/>
<path d="M138.42 35.1677V36.1521H135.09V32.1252H138.42V33.1096H136.44V33.557H138.15V34.5413H136.44V35.0783H138.51L138.42 35.1677Z" fill="white"/>
<path d="M140.49 35.8837L140.94 34.8993C141.3 35.1678 141.84 35.2573 142.29 35.2573C142.74 35.2573 142.83 35.2573 142.83 35.0783C142.83 34.5414 140.58 34.9888 140.58 33.4675C140.58 31.9463 141.21 32.1253 142.47 32.1253C143.73 32.1253 143.55 32.2148 144 32.4832L143.55 33.4675C143.19 33.2886 142.74 33.1991 142.38 33.1991C142.02 33.1991 141.84 33.2886 141.84 33.4675C141.84 33.915 144.09 33.4675 144.09 35.0783C144.09 36.689 143.46 36.4206 142.2 36.4206C140.94 36.4206 140.85 36.2416 140.4 35.9731L140.49 35.8837Z" fill="white"/>
<path d="M147.06 33.1991H145.89V32.1252H149.67V33.1991H148.5V36.1521H147.15V33.1991H147.06Z" fill="white"/>
<path d="M154.26 35.4362H152.73L152.46 36.1521H151.11L152.91 32.1252H154.26L156.06 36.1521H154.62L154.35 35.4362H154.26ZM153.9 34.4519L153.54 33.4675L153.18 34.4519H153.99H153.9Z" fill="white"/>
<path d="M157.95 32.1252H159.93C161.28 32.1252 162.18 32.9306 162.18 34.1834C162.18 35.4362 161.28 36.2416 159.93 36.2416H157.95V32.2147V32.1252ZM159.84 35.0783C160.38 35.0783 160.83 34.7203 160.83 34.0939C160.83 33.4675 160.47 33.1096 159.84 33.1096H159.3V34.9888H159.84V35.0783Z" fill="white"/>
<path d="M164.25 34.1834C164.25 32.9306 165.24 32.0358 166.5 32.0358C167.76 32.0358 168.75 32.9306 168.75 34.1834C168.75 35.4362 167.76 36.3311 166.5 36.3311C165.24 36.3311 164.25 35.4362 164.25 34.1834ZM167.49 34.1834C167.49 33.557 167.04 33.1991 166.59 33.1991C166.14 33.1991 165.69 33.557 165.69 34.1834C165.69 34.8098 166.14 35.1678 166.59 35.1678C167.04 35.1678 167.49 34.8098 167.49 34.1834Z" fill="white"/>
<path d="M34.47 11.8121C34.47 10.7383 34.11 9.57497 33.48 8.68011C32.67 7.5168 31.59 6.53246 30.33 5.99555C28.98 5.45864 27.45 5.36915 25.92 5.45864C25.92 6.17452 25.83 6.97989 26.1 7.60629C26.37 8.32217 27.09 8.7696 27.81 8.85908C29.25 8.85908 30.51 10.0224 30.87 11.3647C30.96 11.7226 30.96 12.17 31.14 12.528C31.23 12.8859 31.41 13.2439 31.68 13.5123C32.04 13.8703 32.67 14.1387 33.21 14.1387C35.37 14.1387 37.53 14.1387 39.69 14.1387C39.69 13.5123 39.69 12.9754 39.69 12.349C39.69 10.8278 39.42 9.21702 38.97 7.78526C38.52 6.44298 37.8 5.27966 36.9 4.20584C35.28 2.41613 33.12 1.07385 30.78 0.626422C29.25 0.26848 27.63 0.357965 26.01 0.357965C26.01 1.43179 26.01 2.41613 26.01 3.48996C26.01 3.57944 26.01 3.75841 26.1 3.75841C26.73 3.75841 27.45 3.75841 28.08 3.75841C29.88 3.8479 31.68 4.56378 33.12 5.72709C34.11 6.53246 34.92 7.60629 35.46 8.7696C36 9.84342 36.27 11.0962 36.27 12.2595C35.82 12.2595 35.37 12.2595 34.92 12.2595C34.65 12.2595 34.47 11.9911 34.47 11.8121Z" fill="white"/>
<path d="M16.29 3.13196C16.29 2.8635 16.29 2.68453 16.29 2.41608C16.29 1.78968 16.83 1.25276 17.37 1.16328C17.64 1.16328 18 1.16328 18.27 1.16328C18.63 0.805337 19.08 0.35791 19.62 0.35791C18.18 0.35791 16.83 0.35791 15.39 0.35791C15.39 1.70019 15.39 3.13196 15.39 4.47424C15.39 4.20578 15.57 3.93733 15.66 3.75836C15.84 3.57939 16.02 3.40042 16.2 3.13196H16.29Z" fill="white"/>
<path d="M21.24 1.07379C21.51 1.07379 21.78 1.07379 21.96 1.07379C22.5 1.07379 22.95 1.43174 23.13 1.96865C23.31 2.32659 23.22 2.77402 23.31 3.13196C23.49 3.31093 23.67 3.4899 23.85 3.75836C24.03 3.93733 24.03 4.20578 24.12 4.47424C24.12 3.13196 24.12 1.70019 24.12 0.35791C22.68 0.35791 21.33 0.35791 19.89 0.35791C20.07 0.35791 20.34 0.35791 20.52 0.536881C20.79 0.715852 20.97 0.984308 21.24 1.16328V1.07379Z" fill="white"/>
<path d="M18.99 4.65319C18.99 5.1901 19.53 5.54805 20.07 5.45856C20.52 5.45856 20.79 4.92165 20.79 4.56371C20.79 4.02679 20.16 3.57937 19.62 3.84782C19.26 3.93731 18.99 4.38474 19.08 4.74268L18.99 4.65319Z" fill="white"/>
<path d="M15.48 8.859C16.38 8.859 17.19 8.859 18.09 8.859C18.63 8.859 19.17 8.859 19.71 8.859C19.17 8.859 18.72 8.41157 18.36 8.05363C18.09 8.05363 17.73 8.05363 17.46 8.05363C17.01 7.96414 16.65 7.69569 16.47 7.24826C16.29 6.89032 16.29 6.44289 16.29 6.08495C16.11 5.90598 15.93 5.72701 15.75 5.54804C15.57 5.36907 15.48 5.10061 15.39 4.83215C15.39 6.26392 15.39 7.6062 15.39 9.03797L15.48 8.859Z" fill="white"/>
<path d="M23.31 5.99547C23.31 6.26393 23.31 6.53238 23.31 6.80084C23.31 7.33775 22.86 7.78518 22.41 7.96415C22.05 8.14312 21.69 7.96415 21.33 8.14312C20.97 8.50107 20.52 8.94849 19.98 8.94849C20.52 8.94849 21.06 8.94849 21.6 8.94849C22.5 8.94849 23.4 8.94849 24.21 8.94849C24.21 7.51672 24.21 6.17444 24.21 4.74268C24.21 5.01113 24.12 5.1901 23.94 5.45856C23.76 5.63753 23.58 5.90599 23.4 6.08496L23.31 5.99547Z" fill="white"/>
<path d="M18.99 10.5593C16.56 10.5593 14.22 10.5593 11.79 10.5593C11.34 10.5593 10.89 10.7383 10.62 11.0962C10.35 11.4542 10.26 11.9016 10.26 12.2595C13.14 12.2595 16.02 12.2595 18.9 12.2595C18.9 11.7226 18.9 11.0962 18.9 10.5593H18.99Z" fill="white"/>
<path d="M20.7 10.5593C20.7 13.4229 20.7 16.2864 20.7 19.1499C22.14 19.1499 23.58 19.1499 25.02 19.1499C24.12 17.7182 23.31 16.2864 22.5 14.8546C23.31 13.4229 24.21 11.9911 25.02 10.5593C23.58 10.5593 22.14 10.5593 20.7 10.5593Z" fill="white"/>
<path d="M25.02 19.1499C26.46 19.1499 27.81 19.1499 29.25 19.1499C29.25 16.7338 29.25 14.4072 29.25 11.9911C29.25 11.2752 28.62 10.5593 27.9 10.5593C26.91 10.5593 25.92 10.5593 25.02 10.5593C25.83 11.9911 26.73 13.4229 27.54 14.8546C26.73 16.2864 25.83 17.7182 25.02 19.1499Z" fill="white"/>
<path d="M10.35 15.7494C13.23 15.7494 16.11 15.7494 18.99 15.7494C18.99 15.2125 18.99 14.5861 18.99 14.0492C16.11 14.0492 13.23 14.0492 10.35 14.0492C10.35 14.5861 10.35 15.2125 10.35 15.7494Z" fill="white"/>
<path d="M4.41 17.8076C3.87 17.0917 3.33 16.3758 2.7 15.6599C1.8 15.6599 0.9 15.6599 0 15.6599C0 18.5234 0 21.387 0 24.2505C0.9 24.2505 1.71 24.2505 2.61 24.2505C3.24 23.5346 3.78 22.8187 4.41 22.1029C3.78 21.387 3.24 20.6711 2.61 19.9552C3.24 19.2393 3.78 18.5234 4.41 17.8076Z" fill="white"/>
<path d="M8.64003 15.7494C7.20003 15.7494 5.85003 15.7494 4.41003 15.7494C4.95003 16.4653 5.58003 17.1812 6.21003 17.897C5.58003 18.6129 5.04003 19.3288 4.41003 20.0447C5.04003 20.7606 5.58003 21.4765 6.21003 22.1923C5.58003 22.9082 5.04003 23.6241 4.41003 24.34C5.85003 24.34 7.29003 24.34 8.64003 24.34C8.64003 21.4765 8.64003 18.6129 8.64003 15.7494Z" fill="white"/>
<path d="M30.96 15.6599C30.96 18.5234 30.96 21.387 30.96 24.2505C33.84 24.2505 36.72 24.2505 39.6 24.2505C39.6 21.387 39.6 18.5234 39.6 15.6599C39.06 15.6599 38.43 15.6599 37.89 15.6599C37.89 17.3601 37.89 19.0604 37.89 20.7606C36.18 20.7606 34.47 20.7606 32.76 20.7606C32.76 19.0604 32.76 17.3601 32.76 15.6599C32.22 15.6599 31.59 15.6599 31.05 15.6599H30.96Z" fill="white"/>
<path d="M34.47 15.6599C34.47 16.8232 34.47 17.9865 34.47 19.1498C35.01 19.1498 35.64 19.1498 36.18 19.1498C36.18 17.9865 36.18 16.8232 36.18 15.6599C35.64 15.6599 35.01 15.6599 34.47 15.6599Z" fill="white"/>
<path d="M18.99 19.1499C18.99 18.613 18.99 17.9866 18.99 17.4497C16.11 17.4497 13.23 17.4497 10.35 17.4497C10.35 17.9866 10.35 18.613 10.35 19.1499C13.23 19.1499 16.11 19.1499 18.99 19.1499Z" fill="white"/>
<path d="M17.01 23.7136C17.01 23.9821 17.01 24.34 17.01 24.6085C17.37 24.6085 17.64 24.6085 18 24.6085C18 24.9664 18 25.2349 18 25.5928C18.36 25.5928 18.63 25.5928 18.99 25.5928C18.99 23.9821 18.99 22.3714 18.99 20.8501C16.11 20.8501 13.23 20.8501 10.35 20.8501C10.35 21.8344 10.35 22.7293 10.35 23.7136C10.71 23.7136 10.98 23.7136 11.34 23.7136C11.34 23.9821 11.34 24.34 11.34 24.6085C11.7 24.6085 11.97 24.6085 12.33 24.6085C12.33 24.9664 12.33 25.2349 12.33 25.5928C13.32 25.5928 14.22 25.5928 15.21 25.5928C15.21 24.9664 15.21 24.34 15.21 23.7136C14.85 23.7136 14.58 23.7136 14.22 23.7136C14.22 24.0716 14.22 24.34 14.22 24.698C13.95 24.698 13.59 24.698 13.32 24.698C13.32 24.0716 13.32 23.4452 13.32 22.8188C14.31 22.8188 15.21 22.8188 16.2 22.8188C16.2 23.1767 16.2 23.4452 16.2 23.8031C16.56 23.8031 16.83 23.8031 17.19 23.8031L17.01 23.7136Z" fill="white"/>
<path d="M29.25 25.9508C28.08 25.9508 27 25.9508 25.83 25.9508C25.83 25.4139 25.83 24.7875 25.83 24.2505C27 24.2505 28.08 24.2505 29.25 24.2505C29.25 23.7136 29.25 23.0872 29.25 22.5503C28.71 22.5503 28.08 22.5503 27.54 22.5503C27.54 22.0134 27.54 21.387 27.54 20.8501C27 20.8501 26.37 20.8501 25.83 20.8501C25.83 22.0134 25.83 23.1767 25.83 24.2505C25.29 24.2505 24.66 24.2505 24.12 24.2505C24.12 23.0872 24.12 22.0134 24.12 20.8501C23.58 20.8501 22.95 20.8501 22.41 20.8501C22.41 21.387 22.41 22.0134 22.41 22.5503C21.87 22.5503 21.24 22.5503 20.7 22.5503C20.7 23.0872 20.7 23.7136 20.7 24.2505C21.87 24.2505 22.95 24.2505 24.12 24.2505C24.12 24.7875 24.12 25.4139 24.12 25.9508C22.95 25.9508 21.87 25.9508 20.7 25.9508C20.7 26.4877 20.7 27.1141 20.7 27.651C21.24 27.651 21.87 27.651 22.41 27.651C22.41 28.1879 22.41 28.8143 22.41 29.3512C22.95 29.3512 23.58 29.3512 24.12 29.3512C24.12 28.1879 24.12 27.0246 24.12 25.9508C24.66 25.9508 25.29 25.9508 25.83 25.9508C25.83 27.1141 25.83 28.2774 25.83 29.3512C26.37 29.3512 27 29.3512 27.54 29.3512C27.54 28.8143 27.54 28.1879 27.54 27.651C28.08 27.651 28.71 27.651 29.25 27.651C29.25 27.0246 29.25 26.4877 29.25 25.9508Z" fill="white"/>
<path d="M10.35 28.1879C10.35 28.9038 11.16 29.4407 11.88 29.4407C14.22 29.4407 16.65 29.4407 18.99 29.4407C18.99 28.4563 18.99 27.5615 18.99 26.5771C16.11 26.5771 13.23 26.5771 10.35 26.5771C10.35 27.1141 10.35 27.651 10.35 28.1879Z" fill="white"/>
<path d="M17.19 32.0358C17.73 32.2148 18.36 32.3043 18.9 32.2148C19.35 32.2148 19.71 31.9463 20.16 31.8569C20.79 31.7674 21.42 31.7674 21.96 31.8569C22.68 31.8569 23.31 32.3043 24.03 32.3043C24.03 31.9463 24.03 31.5884 24.03 31.2305C21.15 31.2305 18.27 31.2305 15.39 31.2305C15.39 31.4094 15.39 31.5884 15.39 31.8569C15.93 31.8569 16.56 31.9464 17.1 32.1253L17.19 32.0358Z" fill="white"/>
<path d="M17.9099 34.8098C18.4499 34.8098 18.9899 34.8098 19.5299 34.6308C20.6999 34.1834 21.9599 34.1834 23.0399 34.6308C23.3999 34.7203 23.7599 34.8098 24.1199 34.8098C24.1199 34.5414 24.1199 34.1834 24.1199 33.915C23.7599 33.915 23.3999 33.915 23.0399 33.8255C22.5899 33.736 22.2299 33.557 21.6899 33.4675C21.1499 33.4675 20.6099 33.4675 20.1599 33.6465C18.9899 34.0939 17.7299 34.0939 16.6499 33.6465C16.2899 33.557 15.9299 33.4675 15.5699 33.4675C15.5699 33.736 15.5699 34.0939 15.5699 34.3624C15.9299 34.3624 16.2899 34.3624 16.6499 34.4519C17.0999 34.5414 17.5499 34.8098 17.9999 34.8098H17.9099Z" fill="white"/>
<path d="M20.7 36.0626C20.16 36.0626 19.71 36.4206 19.17 36.4206C18.36 36.5101 17.46 36.4206 16.65 36.2416C16.29 36.0626 15.84 36.0626 15.48 36.0626C15.48 36.4206 15.48 36.689 15.48 37.047C16.02 37.047 16.65 37.1364 17.1 37.3154C17.73 37.4944 18.36 37.5839 18.9 37.4944C19.26 37.4944 19.62 37.3154 19.98 37.2259C20.61 37.047 21.24 37.047 21.87 37.1364C22.59 37.1364 23.31 37.5839 24.03 37.5839C24.03 37.2259 24.03 36.9575 24.03 36.5995C23.49 36.5995 22.86 36.51 22.32 36.3311C21.78 36.1521 21.15 36.0626 20.52 36.1521L20.7 36.0626Z" fill="white"/>
<path d="M20.7 38.6577C20.34 38.6577 19.98 38.8367 19.71 38.9262C18.99 39.1052 18.36 39.1052 17.64 39.0157C16.92 39.0157 16.29 38.5682 15.48 38.5682C15.48 38.9262 15.48 39.2841 15.48 39.6421C18.36 39.6421 21.24 39.6421 24.12 39.6421C24.12 39.4631 24.12 39.1946 24.12 39.0157C23.49 39.0157 22.95 38.9262 22.41 38.7472C21.87 38.5682 21.24 38.5682 20.7 38.5682V38.6577Z" fill="white"/>
<path d="M3.24 13.9597C3.33 13.9597 3.51 13.9597 3.51 13.7807C3.51 12.9754 3.51 12.17 3.51 11.4541C3.69 9.93287 4.23 8.41162 5.22 7.15882C6.39 5.54808 8.19 4.38477 10.08 3.93734C10.71 3.75837 11.43 3.75837 12.06 3.66889C12.06 4.11632 12.06 4.47426 12.06 4.92168C12.06 5.01117 12.06 5.19014 12.06 5.27963C11.88 5.4586 11.61 5.4586 11.34 5.4586C10.26 5.54808 9.27 5.90602 8.37 6.53242C7.47 7.15882 6.66 7.96419 6.12 8.85905C5.4 10.1118 5.22 11.5436 5.13 12.8859C5.13 13.2438 5.13 13.6018 5.13 13.8702C5.76 13.8702 6.48 13.8702 7.11 13.6913C7.74 13.5123 8.19 12.9754 8.37 12.349C8.55 11.991 8.37 11.5436 8.55 11.1857C8.91 9.93287 10.08 8.94853 11.34 8.76956C11.88 8.76956 12.51 8.59059 12.96 8.23265C13.41 7.8747 13.68 7.24831 13.68 6.62191C13.68 4.47426 13.68 2.32661 13.68 0.178955C13.05 0.178955 12.51 0.178955 11.88 0.178955C11.16 0.178955 10.53 0.178955 9.81 0.357926C8.46 0.536897 7.11 0.894839 5.85 1.52124C4.32 2.32661 2.97 3.48992 1.89 4.92168C0.72 6.97985 0 9.30647 0 11.7226C0 12.5279 0 13.2438 0 14.0492C1.08 14.0492 2.16 14.0492 3.15 14.0492L3.24 13.9597Z" fill="white"/>
<path d="M39.6001 26.0403C38.5201 26.0403 37.5301 26.0403 36.4501 26.0403C36.3601 26.0403 36.0901 26.0403 36.0901 26.1298C36.0901 26.5772 36.0901 27.0246 36.0901 27.4721C36.0901 28.4564 36.0001 29.3513 35.6401 30.2461C34.9201 32.4832 33.3001 34.3624 31.1401 35.3468C29.9701 35.8837 28.7101 36.2416 27.4501 36.1521C27.4501 35.7047 27.4501 35.1678 27.4501 34.7204C27.4501 34.5414 27.7201 34.4519 27.9001 34.4519C28.9801 34.4519 30.1501 34.094 31.0501 33.4676C32.0401 32.7517 32.9401 31.9463 33.4801 30.8725C34.0201 29.7987 34.2901 28.6354 34.2901 27.3826C34.2901 26.9351 34.2901 26.3982 34.2901 25.9508C33.8401 25.9508 33.3901 25.9508 32.8501 25.9508C32.0401 25.9508 31.3201 26.4877 30.9601 27.2036C30.7801 27.651 30.7801 28.0985 30.6901 28.5459C30.3301 29.8882 29.0701 30.8725 27.7201 30.962C27.0901 31.0515 26.4601 31.2304 26.1001 31.7674C25.8301 32.1253 25.5601 32.5727 25.5601 33.1096C25.5601 35.2573 25.5601 37.4049 25.5601 39.5526C26.1001 39.5526 26.7301 39.5526 27.2701 39.5526C28.0801 39.5526 28.8901 39.4631 29.7001 39.3736C30.9601 39.1947 32.2201 38.8367 33.3901 38.2998C34.2901 37.8524 35.1001 37.226 35.8201 36.5996C37.6201 34.8994 38.8801 32.6622 39.2401 30.1566C39.5101 28.8143 39.3301 27.3826 39.4201 25.9508L39.6001 26.0403Z" fill="white"/>
<path d="M5.22 28.0984C5.22 28.7248 5.31 29.3512 5.58 29.8881C5.94 31.0515 6.66 31.9463 7.56 32.7517C8.46 33.6465 9.72 34.1834 10.89 34.3624C11.88 34.5414 12.87 34.5414 13.77 34.5414C13.77 33.915 13.77 33.1991 13.68 32.5727C13.41 31.7673 12.69 31.2304 11.88 31.1409C10.26 31.1409 8.91 29.7987 8.64 28.1879C8.64 27.83 8.46 27.3826 8.28 27.0246C8.01 26.4877 7.56 26.1298 7.02 25.9508C6.66 25.8613 6.21 25.9508 5.85 25.9508C3.87 25.9508 1.98 25.9508 0 25.9508C0 26.4877 0 27.1141 0 27.651C0 29.2617 0.27 30.8725 0.81 32.3937C1.17 33.557 1.89 34.6309 2.61 35.5257C4.23 37.4944 6.48 38.9262 9 39.3736C10.53 39.7315 12.15 39.6421 13.77 39.6421C13.77 38.4787 13.77 37.4049 13.77 36.2416C12.87 36.1521 11.88 36.2416 10.98 36.1521C9.36 35.9732 7.83 35.2573 6.57 34.2729C5.67 33.4676 4.86 32.5727 4.32 31.4989C3.69 30.3356 3.42 29.0828 3.42 27.7405C3.87 27.7405 4.23 27.7405 4.68 27.7405C4.86 27.7405 5.13 27.9195 5.13 28.0984H5.22Z" fill="white"/>
</g>
<defs>
<clipPath id="clip0_4683_3908">
<rect width="180" height="40" fill="white"/>
</clipPath>
</defs>
</svg>
